<svg width="90" height="90" viewBox="0 0 90 90" fill="none" xmlns="http://www.w3.org/2000/svg">
<g clip-path="url(#clip0_6507_80903)">
<path d="M63.75 77.75H26.25C24.2609 77.75 22.3532 76.9598 20.9467 75.5533C19.5402 74.1468 18.75 72.2391 18.75 70.25V17.75C18.75 15.7609 19.5402 13.8532 20.9467 12.4467C22.3532 11.0402 24.2609 10.25 26.25 10.25H52.5L71.25 29V70.25C71.25 72.2391 70.4598 74.1468 69.0533 75.5533C67.6468 76.9598 65.7391 77.75 63.75 77.75Z" fill="#A5D8FF" stroke="#1976D2" stroke-width="2" stroke-linecap="round" stroke-linejoin="round"/>
<path d="M30 40.25H60V66.5H30V40.25Z" stroke="black" stroke-width="2" stroke-linecap="round" stroke-linejoin="round"/>
<path d="M30 55.25H60" stroke="black" stroke-width="2" stroke-linecap="round" stroke-linejoin="round"/>
<path d="M41.25 40.25V66.5" stroke="black" stroke-width="2" stroke-linecap="round" stroke-linejoin="round"/>
<path d="M52.5 10.25V25.25C52.5 26.2446 52.8951 27.1984 53.5984 27.9016C54.3016 28.6049 55.2554 29 56.25 29H71.25" stroke="#1976D2" stroke-width="2" stroke-linecap="round" stroke-linejoin="round"/>
</g>
<defs>
<clipPath id="clip0_6507_80903">
<rect width="90" height="90" fill="white"/>
</clipPath>
</defs>
</svg>
