<svg width="25" height="25" viewBox="0 0 25 25" fill="none" xmlns="http://www.w3.org/2000/svg">
<g clip-path="url(#clip0_6200_81503)">
<path d="M18.7497 8.33301H10.4163C9.26575 8.33301 8.33301 9.26575 8.33301 10.4163V18.7497C8.33301 19.9003 9.26575 20.833 10.4163 20.833H18.7497C19.9003 20.833 20.833 19.9003 20.833 18.7497V10.4163C20.833 9.26575 19.9003 8.33301 18.7497 8.33301Z" fill="#A5D8FF" stroke="#1976D2" stroke-width="2" stroke-linecap="round" stroke-linejoin="round"/>
<path d="M16.667 8.33366V6.25033C16.667 5.69779 16.4475 5.16789 16.0568 4.77719C15.6661 4.38649 15.1362 4.16699 14.5837 4.16699H6.25033C5.69779 4.16699 5.16789 4.38649 4.77719 4.77719C4.38649 5.16789 4.16699 5.69779 4.16699 6.25033V14.5837C4.16699 15.1362 4.38649 15.6661 4.77719 16.0568C5.16789 16.4475 5.69779 16.667 6.25033 16.667H8.33366" stroke="black" stroke-width="2" stroke-linecap="round" stroke-linejoin="round"/>
</g>
<defs>
<clipPath id="clip0_6200_81503">
<rect width="25" height="25" fill="white"/>
</clipPath>
</defs>
</svg>
