<svg width="25" height="25" viewBox="0 0 25 25" fill="none" xmlns="http://www.w3.org/2000/svg">
<g clip-path="url(#clip0_6200_81468)">
<path d="M7.60449 10.1337L14.8389 17.4753C15.2472 17.8847 17.3524 18.017 19.766 15.6035C22.1785 13.1899 22.0576 11.0972 21.6357 10.6743L14.3753 3.54199" stroke="#1976D2" stroke-width="2" stroke-linecap="round" stroke-linejoin="round"/>
<path d="M12.4454 8.27872C14.2788 6.44538 15.0881 4.28497 14.2558 3.45163C13.4225 2.6183 11.261 3.42976 9.42875 5.26205C7.83292 6.85788 7.01209 8.70372 7.37667 9.70372C7.43084 9.85163 7.51209 9.9808 7.61834 10.0891C8.45167 10.9225 10.6131 10.111 12.4454 8.27872Z" stroke="#1976D2" stroke-width="2" stroke-linecap="round" stroke-linejoin="round"/>
<path d="M6.2497 15.625L7.77574 17.3313C8.04805 17.624 8.23037 17.9889 8.30095 18.3824C8.37152 18.776 8.32737 19.1815 8.17375 19.5506C8.02013 19.9198 7.76355 20.2369 7.43461 20.4642C7.10568 20.6915 6.7183 20.8193 6.3187 20.8324C5.9191 20.8455 5.52416 20.7434 5.18103 20.5382C4.8379 20.333 4.56106 20.0334 4.38356 19.6751C4.20606 19.3168 4.13539 18.9151 4.18 18.5178C4.2246 18.1204 4.3826 17.7444 4.63512 17.4344L6.2497 15.625V15.625Z" stroke="black" stroke-width="2" stroke-linecap="round" stroke-linejoin="round"/>
</g>
<defs>
<clipPath id="clip0_6200_81468">
<rect width="25" height="25" fill="white"/>
</clipPath>
</defs>
</svg>
