<svg width="25" height="25" viewBox="0 0 25 25" fill="none" xmlns="http://www.w3.org/2000/svg">
<g clip-path="url(#clip0_6200_81495)">
<path d="M14.583 3.125V7.29167C14.583 7.56793 14.6928 7.83289 14.8881 8.02824C15.0835 8.22359 15.3484 8.33333 15.6247 8.33333H19.7913" stroke="#1976D2" stroke-width="2" stroke-linecap="round" stroke-linejoin="round"/>
<path d="M11.9788 21.875H7.29134C6.73881 21.875 6.2089 21.6555 5.8182 21.2648C5.4275 20.8741 5.20801 20.3442 5.20801 19.7917V5.20833C5.20801 4.6558 5.4275 4.12589 5.8182 3.73519C6.2089 3.34449 6.73881 3.125 7.29134 3.125H14.583L19.7913 8.33333V13.5417M14.583 19.7917H21.8747ZM18.7497 16.6667L21.8747 19.7917L18.7497 22.9167" fill="#A5D8FF"/>
<path d="M11.9788 21.875H7.29134C6.73881 21.875 6.2089 21.6555 5.8182 21.2648C5.4275 20.8741 5.20801 20.3442 5.20801 19.7917V5.20833C5.20801 4.6558 5.4275 4.12589 5.8182 3.73519C6.2089 3.34449 6.73881 3.125 7.29134 3.125H14.583L19.7913 8.33333V13.5417M14.583 19.7917H21.8747M18.7497 16.6667L21.8747 19.7917L18.7497 22.9167" stroke="#1976D2" stroke-width="2" stroke-linecap="round" stroke-linejoin="round"/>
</g>
<defs>
<clipPath id="clip0_6200_81495">
<rect width="25" height="25" fill="white"/>
</clipPath>
</defs>
</svg>
