<svg width="60" height="60" viewBox="0 0 60 60" fill="none" xmlns="http://www.w3.org/2000/svg">
<g clip-path="url(#clip0_6662_80896)">
<path d="M35 7.5V17.5C35 18.163 35.2634 18.7989 35.7322 19.2678C36.2011 19.7366 36.837 20 37.5 20H47.5" stroke="#1976D2" stroke-width="2" stroke-linecap="round" stroke-linejoin="round"/>
<path d="M28.75 52.5H17.5C16.1739 52.5 14.9021 51.9732 13.9645 51.0355C13.0268 50.0979 12.5 48.8261 12.5 47.5V12.5C12.5 11.1739 13.0268 9.90215 13.9645 8.96447C14.9021 8.02678 16.1739 7.5 17.5 7.5H35L47.5 20V32.5M35 47.5H52.5ZM45 40L52.5 47.5L45 55" fill="#A5D8FF"/>
<path d="M28.75 52.5H17.5C16.1739 52.5 14.9021 51.9732 13.9645 51.0355C13.0268 50.0979 12.5 48.8261 12.5 47.5V12.5C12.5 11.1739 13.0268 9.90215 13.9645 8.96447C14.9021 8.02678 16.1739 7.5 17.5 7.5H35L47.5 20V32.5M35 47.5H52.5M45 40L52.5 47.5L45 55" stroke="#1976D2" stroke-width="2" stroke-linecap="round" stroke-linejoin="round"/>
</g>
<defs>
<clipPath id="clip0_6662_80896">
<rect width="60" height="60" fill="white"/>
</clipPath>
</defs>
</svg>
