<svg width="60" height="60" viewBox="0 0 60 60" fill="none" xmlns="http://www.w3.org/2000/svg">
<g clip-path="url(#clip0_6721_80896)">
<path d="M40 42.5V47.5C40 48.8261 39.4732 50.0979 38.5355 51.0355C37.5979 51.9732 36.3261 52.5 35 52.5H17.5C16.1739 52.5 14.9021 51.9732 13.9645 51.0355C13.0268 50.0979 12.5 48.8261 12.5 47.5V22.5C12.5 21.1739 13.0268 19.9021 13.9645 18.9645C14.9021 18.0268 16.1739 17.5 17.5 17.5H22.5" fill="#A5D8FF"/>
<path d="M40 42.5V47.5C40 48.8261 39.4732 50.0979 38.5355 51.0355C37.5979 51.9732 36.3261 52.5 35 52.5H17.5C16.1739 52.5 14.9021 51.9732 13.9645 51.0355C13.0268 50.0979 12.5 48.8261 12.5 47.5V22.5C12.5 21.1739 13.0268 19.9021 13.9645 18.9645C14.9021 18.0268 16.1739 17.5 17.5 17.5H22.5" stroke="#1976D2" stroke-width="2" stroke-linecap="round" stroke-linejoin="round"/>
<path d="M45 42.5H27.5C26.1739 42.5 24.9021 41.9732 23.9645 41.0355C23.0268 40.0979 22.5 38.8261 22.5 37.5V12.5C22.5 11.1739 23.0268 9.90215 23.9645 8.96447C24.9021 8.02678 26.1739 7.5 27.5 7.5H37.5L50 20V37.5C50 38.8261 49.4732 40.0979 48.5355 41.0355C47.5979 41.9732 46.3261 42.5 45 42.5Z" fill="#A5D8FF" stroke="#1976D2" stroke-width="2" stroke-linecap="round" stroke-linejoin="round"/>
<path d="M37.5 7.5V17.5C37.5 18.163 37.7634 18.7989 38.2322 19.2678C38.7011 19.7366 39.337 20 40 20H50" stroke="#1976D2" stroke-width="2" stroke-linecap="round" stroke-linejoin="round"/>
</g>
<defs>
<clipPath id="clip0_6721_80896">
<rect width="60" height="60" fill="white"/>
</clipPath>
</defs>
</svg>
