<svg width="60" height="60" viewBox="0 0 60 60" fill="none" xmlns="http://www.w3.org/2000/svg">
<g clip-path="url(#clip0_6477_80896)">
<path d="M20 32.5V13.75C20 12.7554 20.3951 11.8016 21.0983 11.0983C21.8016 10.3951 22.7554 10 23.75 10C24.7446 10 25.6984 10.3951 26.4017 11.0983C27.1049 11.8016 27.5 12.7554 27.5 13.75V30" stroke="#1976D2" stroke-width="2" stroke-linecap="round" stroke-linejoin="round"/>
<path d="M27.5 13.75V8.75C27.5 8.25754 27.597 7.76991 27.7855 7.31494C27.9739 6.85997 28.2501 6.44657 28.5983 6.09835C28.9466 5.75013 29.36 5.47391 29.8149 5.28545C30.2699 5.097 30.7575 5 31.25 5C31.7425 5 32.2301 5.097 32.6851 5.28545C33.14 5.47391 33.5534 5.75013 33.9017 6.09835C34.2499 6.44657 34.5261 6.85997 34.7145 7.31494C34.903 7.76991 35 8.25754 35 8.75V30" stroke="#1976D2" stroke-width="2" stroke-linecap="round" stroke-linejoin="round"/>
<path d="M35 13.75C35 12.7554 35.3951 11.8016 36.0983 11.0983C36.8016 10.3951 37.7554 10 38.75 10C39.7446 10 40.6984 10.3951 41.4016 11.0983C42.1049 11.8016 42.5 12.7554 42.5 13.75V30" stroke="#1976D2" stroke-width="2" stroke-linecap="round" stroke-linejoin="round"/>
<path d="M42.5005 18.75C42.5005 17.7554 42.8955 16.8016 43.5988 16.0983C44.3021 15.3951 45.2559 15 46.2505 15C47.245 15 48.1988 15.3951 48.9021 16.0983C49.6054 16.8016 50.0005 17.7554 50.0005 18.75V40C50.0005 43.9782 48.4201 47.7936 45.6071 50.6066C42.794 53.4196 38.9787 55 35.0005 55H30.0005H30.5205C28.0363 55.0004 25.5909 54.3839 23.4039 53.2057C21.2169 52.0276 19.3567 50.3247 17.9905 48.25C17.8265 48.0004 17.6631 47.7504 17.5005 47.5C16.7205 46.3025 13.983 41.53 9.28546 33.18C8.80658 32.3288 8.67867 31.3244 8.92891 30.3804C9.17916 29.4363 9.78783 28.6272 10.6255 28.125C11.5177 27.5897 12.5631 27.3678 13.5959 27.4946C14.6286 27.6214 15.5893 28.0897 16.3255 28.825L20.0005 32.5" stroke="#1976D2" stroke-width="2" stroke-linecap="round" stroke-linejoin="round"/>
</g>
<defs>
<clipPath id="clip0_6477_80896">
<rect width="60" height="60" fill="white"/>
</clipPath>
</defs>
</svg>
