<svg width="25" height="25" viewBox="0 0 25 25" fill="none" xmlns="http://www.w3.org/2000/svg">
<g clip-path="url(#clip0_6200_81489)">
<path d="M14.583 3.125V7.29167C14.583 7.56793 14.6928 7.83289 14.8881 8.02824C15.0835 8.22359 15.3484 8.33333 15.6247 8.33333H19.7913" stroke="#1976D2" stroke-width="2" stroke-linecap="round" stroke-linejoin="round"/>
<path d="M5.20801 13.5417V5.20833C5.20801 4.6558 5.4275 4.12589 5.8182 3.73519C6.2089 3.34449 6.73881 3.125 7.29134 3.125H14.583L19.7913 8.33333V19.7917C19.7913 20.3442 19.5718 20.8741 19.1811 21.2648C18.7904 21.6555 18.2605 21.875 17.708 21.875H11.9788M2.08301 19.7917H9.37468ZM6.24967 16.6667L9.37468 19.7917L6.24967 22.9167" fill="#A5D8FF"/>
<path d="M5.20801 13.5417V5.20833C5.20801 4.6558 5.4275 4.12589 5.8182 3.73519C6.2089 3.34449 6.73881 3.125 7.29134 3.125H14.583L19.7913 8.33333V19.7917C19.7913 20.3442 19.5718 20.8741 19.1811 21.2648C18.7904 21.6555 18.2605 21.875 17.708 21.875H11.9788M2.08301 19.7917H9.37468M6.24967 16.6667L9.37468 19.7917L6.24967 22.9167" stroke="#1976D2" stroke-width="2" stroke-linecap="round" stroke-linejoin="round"/>
</g>
<defs>
<clipPath id="clip0_6200_81489">
<rect width="25" height="25" fill="white"/>
</clipPath>
</defs>
</svg>
