<svg width="60" height="60" viewBox="0 0 60 60" fill="none" xmlns="http://www.w3.org/2000/svg">
<g clip-path="url(#clip0_5554_72458)">
<path d="M22.5 12.5H17.5C16.1739 12.5 14.9021 13.0268 13.9645 13.9645C13.0268 14.9021 12.5 16.1739 12.5 17.5V47.5C12.5 48.8261 13.0268 50.0979 13.9645 51.0355C14.9021 51.9732 16.1739 52.5 17.5 52.5H25M47.5 30V17.5C47.5 16.1739 46.9732 14.9021 46.0355 13.9645C45.0979 13.0268 43.8261 12.5 42.5 12.5H37.5" stroke="#1976D2" stroke-width="2" stroke-linecap="round" stroke-linejoin="round"/>
<path d="M32.5 42.5V40C32.5 39.337 32.7634 38.7011 33.2322 38.2322C33.7011 37.7634 34.337 37.5 35 37.5H37.5M45 37.5H47.5C48.163 37.5 48.7989 37.7634 49.2678 38.2322C49.7366 38.7011 50 39.337 50 40V42.5M50 50V52.5C50 53.163 49.7366 53.7989 49.2678 54.2678C48.7989 54.7366 48.163 55 47.5 55H45M37.5 55H35C34.337 55 33.7011 54.7366 33.2322 54.2678C32.7634 53.7989 32.5 53.163 32.5 52.5V50" stroke="black" stroke-width="2" stroke-linecap="round" stroke-linejoin="round"/>
<path d="M32.5 7.5H27.5C24.7386 7.5 22.5 9.73858 22.5 12.5C22.5 15.2614 24.7386 17.5 27.5 17.5H32.5C35.2614 17.5 37.5 15.2614 37.5 12.5C37.5 9.73858 35.2614 7.5 32.5 7.5Z" stroke="#1976D2" stroke-width="2" stroke-linecap="round" stroke-linejoin="round"/>
</g>
<defs>
<clipPath id="clip0_5554_72458">
<rect width="60" height="60" fill="white"/>
</clipPath>
</defs>
</svg>
