<svg width="60" height="60" viewBox="0 0 60 60" fill="none" xmlns="http://www.w3.org/2000/svg">
<g clip-path="url(#clip0_6477_80908)">
<path d="M50 50H45C43.6739 50 42.4021 49.4732 41.4645 48.5355C40.5268 47.5979 40 46.3261 40 45V15C40 13.6739 40.5268 12.4021 41.4645 11.4645C42.4021 10.5268 43.6739 10 45 10H50" stroke="#1976D2" stroke-width="2" stroke-linecap="round" stroke-linejoin="round"/>
<path d="M10 50H15C16.3261 50 17.5979 49.4732 18.5355 48.5355C19.4732 47.5979 20 46.3261 20 45V15C20 13.6739 19.4732 12.4021 18.5355 11.4645C17.5979 10.5268 16.3261 10 15 10H10" stroke="#1976D2" stroke-width="2" stroke-linecap="round" stroke-linejoin="round"/>
<path d="M30 20V40" stroke="black" stroke-width="2" stroke-linecap="round" stroke-linejoin="round"/>
<g clip-path="url(#clip1_6477_80908)">
<path d="M15.4999 31.3749H10.4999V33.6162C10.4999 33.7397 10.4632 33.8606 10.3945 33.9633C10.3259 34.0661 10.2283 34.1462 10.1141 34.1935C9.99988 34.2407 9.87423 34.2531 9.75301 34.229C9.63179 34.2049 9.52044 34.1454 9.43303 34.058L5.31678 29.9418C5.19961 29.8246 5.13379 29.6656 5.13379 29.4999C5.13379 29.3342 5.19961 29.1752 5.31678 29.058L9.43303 24.9418C9.52044 24.8544 9.63179 24.7949 9.75301 24.7708C9.87423 24.7467 9.99988 24.7591 10.1141 24.8064C10.2283 24.8537 10.3259 24.9337 10.3945 25.0365C10.4632 25.1393 10.4999 25.2601 10.4999 25.3837V27.6249H15.4999C15.6657 27.6249 15.8246 27.6908 15.9418 27.808C16.0591 27.9252 16.1249 28.0841 16.1249 28.2499V30.7499C16.1249 30.9157 16.0591 31.0746 15.9418 31.1918C15.8246 31.3091 15.6657 31.3749 15.4999 31.3749Z" fill="#A5D8FF" stroke="#1976D2" stroke-linecap="round" stroke-linejoin="round"/>
</g>
<g clip-path="url(#clip2_6477_80908)">
<path d="M45.5 27.6249H50.5V25.3837C50.5 25.2601 50.5367 25.1393 50.6054 25.0365C50.6741 24.9337 50.7717 24.8537 50.8858 24.8064C51 24.7591 51.1257 24.7467 51.2469 24.7708C51.3681 24.7949 51.4795 24.8544 51.5669 24.9418L55.6831 29.058C55.8003 29.1752 55.8661 29.3342 55.8661 29.4999C55.8661 29.6656 55.8003 29.8246 55.6831 29.9418L51.5669 34.058C51.4795 34.1454 51.3681 34.2049 51.2469 34.229C51.1257 34.2531 51 34.2407 50.8858 34.1935C50.7717 34.1462 50.6741 34.0661 50.6054 33.9633C50.5367 33.8606 50.5 33.7397 50.5 33.6162V31.3749H45.5C45.3342 31.3749 45.1753 31.3091 45.0581 31.1918C44.9408 31.0746 44.875 30.9157 44.875 30.7499V28.2499C44.875 28.0841 44.9408 27.9252 45.0581 27.808C45.1753 27.6908 45.3342 27.6249 45.5 27.6249Z" fill="#A5D8FF" stroke="#1976D2" stroke-linecap="round" stroke-linejoin="round"/>
</g>
</g>
<defs>
<clipPath id="clip0_6477_80908">
<rect width="60" height="60" fill="white"/>
</clipPath>
<clipPath id="clip1_6477_80908">
<rect width="15" height="15" fill="white" transform="translate(3 22)"/>
</clipPath>
<clipPath id="clip2_6477_80908">
<rect width="15" height="15" fill="white" transform="translate(43 22)"/>
</clipPath>
</defs>
</svg>
