<svg width="60" height="60" viewBox="0 0 60 60" fill="none" xmlns="http://www.w3.org/2000/svg">
<path d="M29.7499 2.89857C19.1826 2.86349 9.04276 9.69154 5.03205 19.459C0.809821 29.1315 3.00363 41.147 10.3893 48.6906C17.4927 56.3369 29.1964 59.1433 38.9983 55.5658C49.1567 52.1066 56.6562 42.1304 57.0639 31.3932C57.7477 20.8425 51.5404 10.3164 42.036 5.72051C38.3142 3.86327 34.1582 2.89474 29.9996 2.90069C29.9163 2.89956 29.8331 2.89885 29.7499 2.89857ZM30.4926 5.82746C40.8365 5.88424 50.5787 13.3673 53.2539 23.3771C56.0965 32.9545 52.2515 44.0433 43.9988 49.7158C35.4262 56.0168 22.7134 55.5609 14.618 48.6565C6.46136 42.1532 3.5417 30.124 7.72662 20.5848C11.3538 11.7661 20.4587 5.71843 29.9996 5.83038C30.164 5.82752 30.3284 5.82656 30.4926 5.82746Z" fill="#1976D2"/>
</svg>
