<svg width="60" height="60" viewBox="0 0 60 60" fill="none" xmlns="http://www.w3.org/2000/svg">
<path d="M12.9283 8.01562C7.80933 8.01562 3.64258 12.1824 3.64258 17.3013V42.6981C3.64258 47.817 7.80933 51.9838 12.9283 51.9838H47.0708C52.1897 51.9838 56.3565 47.817 56.3565 42.6981V17.3013C56.3565 12.1824 52.1897 8.01562 47.0708 8.01562H12.9283ZM12.9283 10.9453H47.0708C50.6173 10.9453 53.4268 13.7547 53.4268 17.3013V42.6981C53.4268 46.2446 50.6173 49.0541 47.0708 49.0541H40.1496V30.5752H19.8494V31.505V49.0541H12.9283C9.3817 49.0541 6.57227 46.2446 6.57227 42.6981V17.3013C6.57227 13.7547 9.3817 10.9453 12.9283 10.9453ZM21.709 32.4347H38.2901V49.0159H21.709V32.4347ZM28.6086 34.7932V36.1842V39.4133H25.3793H23.9883V42.1955H25.3793H28.6086V45.4248V46.8156H31.3905V45.4248V42.1955H34.6197H36.0108V39.4133H34.6197H31.3905V36.1842V34.7932H28.6086Z" fill="#1976D2"/>
</svg>
