<svg width="300" height="300" xmlns="http://www.w3.org/2000/svg" viewBox="0 0 300 300"><g class="layer"><path d="M122.28 12.12h52.92c.96 0 1.68 0 2.64.24H180v.48h.36c3-.12 5.52.72 8.16 2.04.36.24.96.36 1.44.6.84.24 1.08.48 1.56 1.08.36.24.96.48 1.32.72 1.44.84 2.64 1.68 3.6 3.12l2.04 2.04c.36.36.6.72.96 1.44.36.6.6 1.2 1.32 1.68.6.72.84 1.44.96 2.28l.36.36c.96.84 1.2 2.28 1.32 3.48 0 .24-.12.48-.12.6 0 .36 0 .36.36.72 1.08 1.44.6 3.6.36 5.28.24.12.48.12.84.24V39h26.88c2.52 0 4.92.12 7.2 1.08.24 0 .48.12.84.24.24.12.36.12.6.24s.24.12.6.12c3 1.08 5.88 2.64 8.16 4.8.36.36.36.36.96.6v.48c.24 0 .24 0 .36.12.48.36.48.36.84 1.08h.48c.48.72.48.72.48 1.56h.84v.72c.24.12.48.12.84.24.24.48.48 1.08.84 1.56.12.12.24.24.36.48.36.36.36.36.36 1.2h.48c.84 1.8 1.32 3.6 1.68 5.52h.24v2.04h.48c.24.84.24 1.8.24 2.64V256.2c0 .6-.12 1.2-.24 1.68h-.48v.48c.12 1.2.12 2.16-.48 3.24-.12.48-.12.84-.24 1.32h-.48v.6c-.24.6-.36 1.32-.6 1.92h-.48c-.12.24-.12.24-.12.48-.12.6-.36 1.2-.6 1.68-.12-.12-.12-.24-.24-.48h-.84v.72h.48v.48h-.48v.48c-.24 1.08-.84 1.44-1.44 2.04-.24.24-.48.36-.6.6l-.36.36c-.36.36-.84.72-1.2 1.2l-.6.6-.6.6c-.6.48-1.2.6-1.92.72-.12.24-.12.48-.24.72-1.2.84-2.64 1.44-4.08 1.92-.6.24-1.2.48-1.68.72-1.68.72-3.24.84-4.92.84-.84.12-.84.12-1.2.36-.6.24-1.08.24-1.8.24H66.84c-.6 0-1.08-.24-1.56-.48-.48 0-1.2-.12-1.56-.12-1.44 0-2.52-.24-3.84-.84-.6-.12-1.2-.24-1.8-.48v-.48h-.48c-.84-.24-1.32-.36-2.04-.6v-.48c-.12-.12-.36-.12-.48-.12-.84-.12-.96-.36-1.44-.84l-.84-.36a3.96 3.96 0 0 1-2.04-1.68c-.24-.24-.48-.36-.84-.6-.96-.72-1.56-1.56-2.4-2.4-.36-.36-.36-.36-.96-.84v-.72c-.24-.12-.48-.12-.84-.24a2.4 2.4 0 0 1-.48-1.68 1.7 1.7 0 0 0-.84-.24c-.24-.6-.48-1.2-.84-1.8-.12-.24-.12-.24-.12-.48a3.6 3.6 0 0 1-.48-2.04c-.12 0-.36-.12-.48-.24-.12-.48-.12-.48-.24-1.2s-.24-1.44-.48-2.16c-.6-2.04-.48-4.08-.48-6.12V63.36c0-.48 0-.48.24-.72.12-.48.12-1.08.24-1.56.12-.72.24-1.68.48-2.52 0-.12 0-.36.12-.6.12-.48.12-.48.6-1.32.12-.36.24-.72.24-1.2.24-.72.48-1.32 1.08-1.92 0-.24 0-.24.12-.48.36-.72.84-1.32 1.32-1.92.12-.12.24-.36.24-.48.36-.48.48-.84 1.08-1.32h.48v-.48c.24-.84.84-1.44 1.44-2.04.24-.24.48-.36.6-.6.6-.48.6-.48 1.68-.48.12-.12.12-.24.24-.48.24-.6.84-.84 1.44-1.32.6-.36 1.2-.72 1.68-1.32h1.2c.12-.24.12-.24.24-.6.6-.24.6-.24 1.32-.48.84-.12 1.32-.24 2.04-.72 1.2-.48 2.4-.6 3.6-.84.36-.12.84-.12 1.32-.24.6-.12 1.2-.12 1.8-.12h28.92c.12-.36.12-.6.24-1.08.12-.36 0-.24.12-.6.12-.72.24-1.56.24-2.28.12-1.56.36-2.4.96-3.72.12-.72.36-1.44.48-2.04h.48v-.72c.24-1.2.6-1.8 1.44-2.64.36-.48.36-.48.48-1.2.24-.6.24-.6.84-.84l.48-.24c0-.24 0-.36.12-.6.12-.72.36-1.08 1.08-1.68l.48-.48.6-.6.6-.6.48-.48c.24-.12.36-.36.48-.48a4.8 4.8 0 0 1 1.8-.6c.12-.24.12-.24.24-.36.36-.84.96-1.08 1.8-1.44.12 0 .36-.24.48-.24 1.44-.84 2.88-1.56 4.56-1.92.6-.24 1.44-.48 2.04-.72.84-.24 1.32-.24 2.04-.24h1.44v-.48c.24.12.48.12.6.24h2.16v-.48zm-74.64 36c.12.24.12.36.24.48.12-.12.12-.24.24-.48zm-3.12 4.32.24.36zm207.36 217.2c-.12.12-.12.36-.24.48h.48c-.12-.12-.12-.36-.24-.48m-4.56 4.44.24.48zm-2.04 1.32c.12.12.24.36.24.48.24-.12.36-.36.48-.48h-.84zm22.2 27.6-123-263.4zm-49.2-.96 110.16.6z" fill="#1b77d2"/><path d="M124.44 21.36h48.72c.84 0 1.56 0 2.4.24h1.92v.48h.36c2.76-.12 5.04.72 7.56 1.92.36.24.84.36 1.32.6.72.24.96.48 1.44.96.36.24.84.48 1.2.72 1.32.84 2.4 1.56 3.36 2.88l1.92 1.92c.36.36.6.72.84 1.32.36.6.6 1.08 1.2 1.56.6.72.72 1.32.84 2.16l.36.36c.84.84 1.08 2.16 1.2 3.24 0 .24-.12.48-.12.6 0 .36 0 .36.36.72.96 1.32.6 3.36.36 4.92.24.12.48.12.72.24v.48h24.84c2.28 0 4.56.12 6.6.96.24 0 .48.12.72.24s.36.12.6.24.24.12.6.12c2.76.96 5.4 2.52 7.56 4.44.36.36.36.36.84.6v.48c.24 0 .24 0 .36.12.48.36.48.36.72.96h.48c.48.72.48.72.48 1.44h.72V57c.24.12.48.12.72.24l.72 1.44c.12.12.24.24.36.48.36.36.36.36.36 1.08h.48c.72 1.68 1.2 3.36 1.56 5.16h.24v1.92h.48c.24.84.24 1.68.24 2.52v179.88c0 .6-.12 1.08-.24 1.56h-.48v.48c.12 1.08.12 2.04-.48 3-.12.48-.12.84-.24 1.2h-.48v.6c-.24.6-.36 1.2-.6 1.8h-.48c-.12.24-.12.24-.12.48-.12.6-.36 1.08-.6 1.56-.12-.12-.12-.24-.24-.48h-.72v.72h.48v.48h-.48v.48c-.24.96-.72 1.32-1.32 1.92-.24.24-.48.36-.6.6l-.36.36-1.08 1.08-.6.6-.6.6c-.6.48-1.08.6-1.8.72-.12.24-.12.48-.24.72-1.08.84-2.4 1.32-3.72 1.8-.6.24-1.08.48-1.56.72-1.56.72-3 .84-4.56.84-.72.12-.72.12-1.08.36-.6.24-.96.24-1.68.24h-153c-.6 0-.96-.24-1.44-.48-.48 0-1.08-.12-1.44-.12-1.32 0-2.28-.24-3.48-.84a12 12 0 0 1-1.68-.48v-.48h-.48c-.72-.24-1.2-.36-1.92-.6v-.48c-.12-.12-.36-.12-.48-.12-.72-.12-.84-.36-1.32-.84l-.72-.36a4.8 4.8 0 0 1-1.92-1.56c-.24-.24-.48-.36-.72-.6-.84-.72-1.44-1.44-2.16-2.28l-.84-.84v-.72c-.24-.12-.48-.12-.72-.24-.36-.6-.48-.84-.48-1.56-.24-.12-.48-.24-.72-.24-.24-.6-.48-1.08-.72-1.68-.12-.24-.12-.24-.12-.48a3.3 3.3 0 0 1-.48-1.92c-.12 0-.36-.12-.48-.24-.12-.48-.12-.48-.24-1.08-.12-.72-.24-1.32-.48-2.04-.6-1.92-.48-3.84-.48-5.76V69.24c0-.48 0-.48.24-.72.12-.48.12-.96.24-1.44.12-.72.24-1.56.48-2.4 0-.12 0-.36.12-.6.12-.48.12-.48.6-1.2.12-.36.24-.72.24-1.08.24-.72.48-1.2.96-1.8 0-.24 0-.24.12-.48.36-.72.72-1.2 1.2-1.8.12-.12.24-.36.24-.48.36-.48.48-.84.96-1.2h.48v-.48c.24-.84.72-1.32 1.32-1.92.24-.24.48-.36.6-.6.6-.48.6-.48 1.56-.48.12-.12.12-.24.24-.48.24-.6.72-.84 1.32-1.2s1.08-.72 1.56-1.2h1.08c.12-.24.12-.24.24-.6l1.2-.48c.72-.12 1.2-.24 1.92-.72 1.08-.48 2.16-.6 3.36-.84.36-.12.72-.12 1.2-.24.6-.12 1.08-.12 1.68-.12h26.52c.12-.36.12-.6.24-.96 0-.24 0-.24.12-.6.12-.72.24-1.44.24-2.16.12-1.44.36-2.28.84-3.48.12-.72.36-1.32.48-1.92h.48v-.72c.24-1.08.6-1.68 1.32-2.52.36-.48.36-.48.48-1.08.24-.6.24-.6.72-.84l.48-.24c0-.24 0-.36.12-.6.12-.72.36-.96.96-1.56l.48-.48.6-.6.6-.6.48-.48c.24-.12.36-.36.48-.48.6-.36.96-.48 1.68-.6.12-.24.12-.24.24-.36.36-.84.84-.96 1.68-1.32.12 0 .36-.24.48-.24 1.32-.84 2.64-1.44 4.2-1.8.6-.24 1.32-.48 1.92-.72.72-.24 1.2-.24 1.92-.24h1.32v-.48c.24.12.48.12.6.24h1.92zM55.8 55.08c.12.24.12.36.24.48.12-.12.12-.24.24-.48zm-2.88 4.08.24.36zm190.8 203.16c-.12.12-.12.36-.24.48h.48c-.12-.12-.12-.36-.24-.48m-4.2 4.2.24.48zm-1.92 1.2c.12.12.24.36.24.48.24-.12.36-.36.48-.48zm0 0" fill="#B7DCF6"/><path d="M114.6 196.68h30.48c3.6-.12 7.32-.12 11.04-.12h25.92c10.08 0 10.08 0 13.92 3.6 2.52 2.52 3.84 5.64 3.84 9.24v.6a11.4 11.4 0 0 1-2.64 7.32l-.6.6c-1.92 2.16-4.68 3.72-7.68 3.84h-6.12c-.96 0-1.92.12-2.88.12h-66.96c-4.08 0-6.96-1.32-9.84-3.96-2.4-2.52-3.36-5.52-3.36-8.88.12-3.36 1.56-6.24 3.84-8.64 3.12-3 6.84-3.72 11.04-3.72m-2.4-44.76h67.44c10.08-.12 10.08-.12 13.92 3.48 2.52 2.64 3.84 5.76 3.84 9.36v.6c-.12 2.88-.84 5.04-2.64 7.2-.24.24-.36.48-.6.72-1.92 2.04-4.68 3.6-7.68 3.84H123c-1.92.12-3.84.12-5.64 0-.96 0-1.92 0-2.88.12h-2.64c-.48-.12-.84 0-1.32 0-4.08-.12-6.96-1.44-9.84-4.08-2.4-2.4-3.36-5.52-3.36-8.76.12-3.36 1.56-6.24 3.84-8.76 3.12-3 6.84-3.72 11.04-3.72m16.2-42.72h43.68c4.32 0 8.16.36 11.52 3.48 2.64 2.76 3.84 6.12 3.72 9.84-.12 3.48-1.44 6.48-3.96 8.88-2.88 2.16-5.76 3-9.24 3h-46.2c-4.92 0-8.76-.72-12.48-4.2-2.28-2.4-3.36-5.76-3.24-9.12.36-3.24 1.92-6.48 4.32-8.76 3.72-2.76 7.32-3.12 11.88-3.12m0 0" fill="#5FB5F6"/><path d="m108.96 27 .96.24-.96.48zm-.72.72c.24.12.36.36.48.48l-.6.6-.84.84c-.12.12-.36.24-.48.48l-.36.36-.36.36c-.48.48-.48.48-.84 1.08-.12-.36-.12-.36-.24-.96.24-.36.24-.36.72-.72.12-.24.24-.36.36-.48.24-.24.36-.36.6-.48l.48-.48zm0 0" fill="#3AA8F2"/><path d="M243.48 262.8c.12.12.36.12.48.24L240 267c0-.72 0-.72.36-1.08.12-.24.36-.36.48-.48.24-.24.36-.36.48-.6.24-.12.36-.24.6-.36.24-.24.48-.48.6-.72.36-.36.72-.6.96-.96m0 0" fill="#42A2E6"/><path d="M228.24 271.68h1.92v.24h-1.92zm-158.4 0h1.92v.24h-1.92zm0 0" fill="#000002"/><path d="M199.92 44.52h.24v1.2h-.24zm0 0" fill="#5FB5F6"/><path d="M123.24 21.36h48.72c.84 0 1.56 0 2.4.24h1.92v.48h.36c2.76-.12 5.04.72 7.56 1.92.36.24.84.36 1.32.6.72.24.96.48 1.44.96.36.24.84.48 1.2.72 1.32.84 2.4 1.56 3.36 2.88l1.92 1.92c.36.36.6.72.84 1.32.36.6.6 1.08 1.2 1.56.6.72.72 1.32.84 2.16l.36.36c.84.84 1.08 2.16 1.2 3.24 0 .24-.12.48-.12.6 0 .36 0 .36.36.72.96 1.32.6 3.36.36 4.92.24.12.48.12.72.24 0 .24 0 .36-.12.48-.36 1.8-.36 3.36-.36 5.04v5.04c-.12 2.52-.12 4.92-.12 7.44v6.24c0 7.68-2.16 14.04-7.56 19.56-1.56 1.56-3.24 2.64-5.16 3.84-.36.12-.6.24-.84.48-3.48 1.8-7.32 2.52-11.4 2.52h-47.4c-8.16.12-14.88-2.04-20.76-7.68-2.52-2.52-4.2-5.4-5.4-8.64 0-.12-.12-.24-.12-.48-1.44-3.72-1.44-7.56-1.44-11.64v-7.32c-.12-4.32-.12-8.52-.12-12.96-9.36-.12-18.72-.12-28.32-.24v-.24l28.32-.24c.12-.12.12-.36.24-.48l-.72-.24.48-.48c.12-.48.12-.48.12-1.08 0-.24 0-.24.12-.6V43.2a9.6 9.6 0 0 1 .96-3.72c.12-.36.12-.72.24-1.08.12-.24.12-.6.24-.84h.48v-.72c.24-1.08.6-1.68 1.32-2.52.36-.48.36-.48.48-1.08.24-.6.24-.6.72-.84l.48-.24c0-.24 0-.36.12-.6.12-.72.36-.96.96-1.56l.48-.48.6-.6.6-.6.48-.48c.24-.12.36-.36.48-.48.6-.36.96-.48 1.68-.6.12-.12.12-.24.24-.36.36-.84.84-.96 1.68-1.32.12 0 .36-.24.48-.24 1.32-.84 2.64-1.44 4.2-1.8.6-.24 1.32-.48 1.92-.72.72-.24 1.2-.24 1.92-.24h1.32v-.48c.24.12.48.12.6.24h1.92zm0 0" fill="#0D96EF"/><path d="m249.6 251.52.24.96zm-16.2 18.96.48.24zm-167.28 0 .48.24zm0 0" fill="#000002"/></g></svg>