<?xml version="1.0" encoding="UTF-8"?>
<svg xmlns="http://www.w3.org/2000/svg" xmlns:xlink="http://www.w3.org/1999/xlink" width="25px" height="25px" viewBox="0 0 25 25" version="1.1">
<g id="surface1">
<path style=" stroke:none;fill-rule:nonzero;fill:rgb(71.764706%,86.27451%,96.470588%);fill-opacity:1;" d="M 10.371094 2.03125 C 10.914062 2.03125 11.457031 2.03125 12 2.03125 C 12.253906 2.03125 12.507812 2.03125 12.757812 2.03125 C 12.980469 2.03125 13.199219 2.03125 13.417969 2.03125 C 13.535156 2.03125 13.652344 2.03125 13.769531 2.027344 C 13.878906 2.027344 13.988281 2.027344 14.097656 2.027344 C 14.136719 2.027344 14.179688 2.027344 14.21875 2.027344 C 14.273438 2.027344 14.328125 2.027344 14.382812 2.027344 C 14.398438 2.027344 14.414062 2.027344 14.429688 2.027344 C 14.5 2.027344 14.5625 2.03125 14.628906 2.050781 C 14.65625 2.050781 14.683594 2.050781 14.710938 2.050781 C 14.734375 2.050781 14.761719 2.050781 14.785156 2.050781 C 14.785156 2.0625 14.785156 2.078125 14.785156 2.089844 C 14.804688 2.089844 14.804688 2.089844 14.820312 2.089844 C 15.050781 2.082031 15.238281 2.152344 15.445312 2.246094 C 15.484375 2.265625 15.523438 2.28125 15.5625 2.296875 C 15.621094 2.320312 15.644531 2.339844 15.683594 2.382812 C 15.714844 2.402344 15.75 2.421875 15.78125 2.441406 C 15.890625 2.507812 15.976562 2.574219 16.058594 2.675781 C 16.109375 2.730469 16.164062 2.78125 16.21875 2.835938 C 16.25 2.871094 16.269531 2.902344 16.289062 2.949219 C 16.320312 3.003906 16.34375 3.042969 16.386719 3.082031 C 16.4375 3.136719 16.445312 3.191406 16.464844 3.261719 C 16.472656 3.269531 16.484375 3.28125 16.492188 3.289062 C 16.5625 3.359375 16.582031 3.46875 16.585938 3.5625 C 16.585938 3.582031 16.582031 3.597656 16.582031 3.613281 C 16.578125 3.636719 16.578125 3.636719 16.609375 3.667969 C 16.6875 3.78125 16.664062 3.953125 16.640625 4.082031 C 16.660156 4.089844 16.679688 4.09375 16.699219 4.101562 C 16.699219 4.113281 16.699219 4.128906 16.699219 4.140625 C 16.714844 4.140625 16.714844 4.140625 16.734375 4.140625 C 17.011719 4.140625 17.289062 4.140625 17.566406 4.140625 C 17.699219 4.136719 17.832031 4.136719 17.964844 4.136719 C 18.097656 4.136719 18.226562 4.136719 18.355469 4.136719 C 18.402344 4.136719 18.453125 4.136719 18.503906 4.136719 C 18.570312 4.136719 18.640625 4.136719 18.710938 4.136719 C 18.730469 4.136719 18.75 4.136719 18.769531 4.136719 C 18.957031 4.136719 19.148438 4.152344 19.324219 4.21875 C 19.34375 4.222656 19.359375 4.230469 19.382812 4.238281 C 19.398438 4.246094 19.414062 4.25 19.433594 4.257812 C 19.453125 4.265625 19.453125 4.265625 19.476562 4.273438 C 19.707031 4.351562 19.925781 4.480469 20.109375 4.644531 C 20.136719 4.671875 20.136719 4.671875 20.175781 4.6875 C 20.175781 4.699219 20.175781 4.714844 20.175781 4.726562 C 20.195312 4.734375 20.195312 4.734375 20.214844 4.742188 C 20.253906 4.765625 20.253906 4.765625 20.273438 4.824219 C 20.285156 4.824219 20.300781 4.824219 20.3125 4.824219 C 20.351562 4.882812 20.351562 4.882812 20.351562 4.941406 C 20.371094 4.941406 20.390625 4.941406 20.410156 4.941406 C 20.410156 4.960938 20.410156 4.980469 20.410156 5 C 20.429688 5.007812 20.449219 5.011719 20.46875 5.019531 C 20.488281 5.058594 20.507812 5.097656 20.527344 5.136719 C 20.539062 5.152344 20.550781 5.164062 20.558594 5.179688 C 20.585938 5.214844 20.585938 5.214844 20.585938 5.273438 C 20.597656 5.273438 20.613281 5.273438 20.625 5.273438 C 20.6875 5.414062 20.730469 5.550781 20.761719 5.703125 C 20.769531 5.703125 20.773438 5.703125 20.78125 5.703125 C 20.78125 5.753906 20.78125 5.804688 20.78125 5.859375 C 20.792969 5.859375 20.808594 5.859375 20.820312 5.859375 C 20.835938 5.929688 20.84375 5.996094 20.84375 6.066406 C 20.84375 6.097656 20.84375 6.097656 20.84375 6.132812 C 20.84375 6.15625 20.84375 6.179688 20.84375 6.207031 C 20.84375 6.230469 20.84375 6.257812 20.84375 6.285156 C 20.84375 6.355469 20.84375 6.425781 20.84375 6.5 C 20.84375 6.574219 20.84375 6.652344 20.84375 6.730469 C 20.84375 6.867188 20.84375 7.003906 20.84375 7.140625 C 20.84375 7.34375 20.84375 7.546875 20.84375 7.75 C 20.84375 8.109375 20.84375 8.472656 20.84375 8.835938 C 20.84375 9.152344 20.84375 9.46875 20.84375 9.785156 C 20.84375 9.816406 20.84375 9.816406 20.84375 9.847656 C 20.84375 9.933594 20.84375 10.019531 20.84375 10.105469 C 20.84375 10.90625 20.84375 11.703125 20.84375 12.503906 C 20.84375 13.214844 20.84375 13.925781 20.84375 14.636719 C 20.84375 15.4375 20.84375 16.234375 20.84375 17.03125 C 20.84375 17.117188 20.84375 17.203125 20.84375 17.289062 C 20.84375 17.308594 20.84375 17.328125 20.84375 17.351562 C 20.84375 17.667969 20.84375 17.984375 20.84375 18.300781 C 20.84375 18.660156 20.84375 19.019531 20.84375 19.382812 C 20.84375 19.582031 20.84375 19.785156 20.84375 19.984375 C 20.84375 20.121094 20.84375 20.253906 20.84375 20.390625 C 20.84375 20.464844 20.84375 20.542969 20.84375 20.621094 C 20.84375 20.703125 20.84375 20.785156 20.84375 20.867188 C 20.84375 20.890625 20.84375 20.914062 20.84375 20.941406 C 20.84375 20.960938 20.84375 20.984375 20.84375 21.007812 C 20.84375 21.035156 20.84375 21.035156 20.84375 21.0625 C 20.839844 21.109375 20.832031 21.148438 20.820312 21.191406 C 20.808594 21.191406 20.792969 21.191406 20.78125 21.191406 C 20.78125 21.210938 20.78125 21.210938 20.78125 21.230469 C 20.785156 21.324219 20.785156 21.398438 20.742188 21.484375 C 20.734375 21.515625 20.726562 21.550781 20.722656 21.582031 C 20.710938 21.582031 20.695312 21.582031 20.683594 21.582031 C 20.679688 21.601562 20.679688 21.601562 20.675781 21.625 C 20.664062 21.679688 20.648438 21.726562 20.625 21.777344 C 20.613281 21.777344 20.597656 21.777344 20.585938 21.777344 C 20.582031 21.800781 20.582031 21.800781 20.578125 21.820312 C 20.566406 21.871094 20.550781 21.910156 20.527344 21.953125 C 20.519531 21.941406 20.515625 21.925781 20.507812 21.914062 C 20.488281 21.914062 20.46875 21.914062 20.449219 21.914062 C 20.449219 21.933594 20.449219 21.953125 20.449219 21.972656 C 20.460938 21.972656 20.476562 21.972656 20.488281 21.972656 C 20.488281 21.984375 20.488281 22 20.488281 22.011719 C 20.476562 22.011719 20.460938 22.011719 20.449219 22.011719 C 20.449219 22.027344 20.445312 22.039062 20.445312 22.054688 C 20.425781 22.125 20.394531 22.15625 20.339844 22.207031 C 20.324219 22.226562 20.304688 22.242188 20.285156 22.261719 C 20.277344 22.273438 20.269531 22.28125 20.257812 22.289062 C 20.230469 22.320312 20.203125 22.347656 20.171875 22.375 C 20.15625 22.394531 20.136719 22.414062 20.117188 22.429688 C 20.101562 22.449219 20.085938 22.464844 20.066406 22.480469 C 20.015625 22.523438 19.984375 22.53125 19.921875 22.539062 C 19.914062 22.558594 19.910156 22.578125 19.902344 22.597656 C 19.808594 22.671875 19.703125 22.714844 19.589844 22.753906 C 19.542969 22.773438 19.5 22.789062 19.457031 22.8125 C 19.332031 22.871094 19.214844 22.878906 19.082031 22.882812 C 19.023438 22.886719 19.023438 22.886719 18.988281 22.910156 C 18.9375 22.933594 18.90625 22.933594 18.851562 22.933594 C 18.824219 22.933594 18.824219 22.933594 18.796875 22.933594 C 18.777344 22.933594 18.753906 22.933594 18.734375 22.933594 C 18.710938 22.933594 18.691406 22.933594 18.667969 22.933594 C 18.59375 22.933594 18.519531 22.933594 18.445312 22.933594 C 18.394531 22.933594 18.339844 22.933594 18.289062 22.933594 C 18.171875 22.933594 18.054688 22.933594 17.941406 22.933594 C 17.765625 22.933594 17.59375 22.933594 17.421875 22.933594 C 17.113281 22.933594 16.804688 22.933594 16.5 22.933594 C 16.230469 22.933594 15.960938 22.933594 15.691406 22.933594 C 15.671875 22.933594 15.65625 22.933594 15.636719 22.933594 C 15.5625 22.933594 15.492188 22.933594 15.417969 22.933594 C 14.738281 22.933594 14.058594 22.933594 13.378906 22.933594 C 12.773438 22.933594 12.167969 22.933594 11.5625 22.933594 C 10.882812 22.933594 10.207031 22.933594 9.527344 22.933594 C 9.453125 22.933594 9.382812 22.933594 9.308594 22.933594 C 9.28125 22.933594 9.28125 22.933594 9.257812 22.933594 C 8.988281 22.933594 8.71875 22.933594 8.449219 22.933594 C 8.140625 22.933594 7.835938 22.933594 7.53125 22.933594 C 7.359375 22.933594 7.1875 22.933594 7.015625 22.933594 C 6.902344 22.933594 6.785156 22.933594 6.671875 22.933594 C 6.605469 22.933594 6.542969 22.933594 6.476562 22.933594 C 6.40625 22.933594 6.335938 22.933594 6.265625 22.933594 C 6.246094 22.933594 6.222656 22.933594 6.203125 22.933594 C 6.183594 22.933594 6.167969 22.933594 6.148438 22.933594 C 6.132812 22.933594 6.113281 22.933594 6.097656 22.933594 C 6.050781 22.929688 6.019531 22.914062 5.976562 22.890625 C 5.9375 22.886719 5.894531 22.882812 5.855469 22.882812 C 5.746094 22.875 5.667969 22.855469 5.566406 22.8125 C 5.519531 22.796875 5.476562 22.785156 5.429688 22.773438 C 5.429688 22.761719 5.429688 22.746094 5.429688 22.734375 C 5.414062 22.730469 5.402344 22.730469 5.386719 22.726562 C 5.332031 22.714844 5.285156 22.699219 5.234375 22.675781 C 5.234375 22.664062 5.234375 22.648438 5.234375 22.636719 C 5.21875 22.632812 5.203125 22.632812 5.1875 22.628906 C 5.128906 22.617188 5.117188 22.601562 5.078125 22.558594 C 5.058594 22.550781 5.039062 22.539062 5.023438 22.53125 C 4.953125 22.496094 4.914062 22.457031 4.863281 22.402344 C 4.839844 22.382812 4.820312 22.367188 4.796875 22.347656 C 4.730469 22.292969 4.675781 22.230469 4.617188 22.164062 C 4.589844 22.128906 4.589844 22.128906 4.550781 22.089844 C 4.550781 22.070312 4.550781 22.050781 4.550781 22.03125 C 4.53125 22.023438 4.511719 22.019531 4.492188 22.011719 C 4.460938 21.960938 4.453125 21.9375 4.453125 21.875 C 4.433594 21.867188 4.414062 21.863281 4.394531 21.855469 C 4.371094 21.8125 4.351562 21.769531 4.332031 21.722656 C 4.324219 21.703125 4.324219 21.703125 4.316406 21.683594 C 4.292969 21.625 4.277344 21.585938 4.277344 21.523438 C 4.265625 21.515625 4.25 21.511719 4.238281 21.503906 C 4.226562 21.464844 4.226562 21.464844 4.21875 21.414062 C 4.207031 21.351562 4.195312 21.296875 4.179688 21.238281 C 4.132812 21.082031 4.136719 20.921875 4.136719 20.761719 C 4.136719 20.734375 4.136719 20.710938 4.136719 20.683594 C 4.136719 20.613281 4.136719 20.542969 4.136719 20.472656 C 4.136719 20.394531 4.136719 20.316406 4.136719 20.238281 C 4.136719 20.105469 4.136719 19.96875 4.136719 19.832031 C 4.136719 19.632812 4.136719 19.429688 4.136719 19.230469 C 4.136719 18.871094 4.136719 18.511719 4.136719 18.152344 C 4.136719 17.835938 4.136719 17.523438 4.136719 17.210938 C 4.136719 17.179688 4.136719 17.179688 4.136719 17.144531 C 4.136719 17.0625 4.136719 16.976562 4.136719 16.890625 C 4.136719 16.097656 4.136719 15.304688 4.136719 14.511719 C 4.136719 13.804688 4.136719 13.101562 4.136719 12.394531 C 4.136719 11.601562 4.136719 10.808594 4.136719 10.019531 C 4.136719 9.933594 4.136719 9.847656 4.136719 9.765625 C 4.136719 9.742188 4.136719 9.722656 4.136719 9.703125 C 4.136719 9.386719 4.136719 9.074219 4.136719 8.757812 C 4.136719 8.402344 4.136719 8.042969 4.136719 7.6875 C 4.136719 7.488281 4.136719 7.289062 4.136719 7.085938 C 4.136719 6.953125 4.136719 6.820312 4.136719 6.6875 C 4.136719 6.609375 4.136719 6.535156 4.136719 6.457031 C 4.136719 6.375 4.136719 6.296875 4.136719 6.214844 C 4.136719 6.1875 4.136719 6.164062 4.136719 6.140625 C 4.136719 6.117188 4.136719 6.097656 4.136719 6.074219 C 4.136719 6.054688 4.136719 6.039062 4.136719 6.019531 C 4.140625 5.976562 4.140625 5.976562 4.160156 5.957031 C 4.167969 5.917969 4.171875 5.882812 4.179688 5.84375 C 4.191406 5.777344 4.203125 5.710938 4.21875 5.644531 C 4.222656 5.628906 4.222656 5.613281 4.226562 5.59375 C 4.238281 5.546875 4.238281 5.546875 4.277344 5.488281 C 4.289062 5.460938 4.296875 5.429688 4.304688 5.398438 C 4.324219 5.34375 4.339844 5.304688 4.375 5.253906 C 4.382812 5.230469 4.382812 5.230469 4.390625 5.207031 C 4.417969 5.148438 4.453125 5.109375 4.492188 5.058594 C 4.5 5.046875 4.507812 5.03125 4.511719 5.015625 C 4.535156 4.976562 4.554688 4.949219 4.589844 4.921875 C 4.601562 4.921875 4.617188 4.921875 4.628906 4.921875 C 4.628906 4.90625 4.632812 4.894531 4.632812 4.878906 C 4.652344 4.808594 4.6875 4.773438 4.742188 4.71875 C 4.757812 4.703125 4.777344 4.6875 4.792969 4.667969 C 4.84375 4.628906 4.84375 4.628906 4.921875 4.628906 C 4.925781 4.617188 4.929688 4.605469 4.9375 4.59375 C 4.964844 4.542969 4.996094 4.523438 5.046875 4.488281 C 5.097656 4.460938 5.136719 4.433594 5.175781 4.394531 C 5.226562 4.390625 5.226562 4.390625 5.273438 4.394531 C 5.28125 4.367188 5.28125 4.367188 5.292969 4.335938 C 5.335938 4.320312 5.335938 4.320312 5.386719 4.304688 C 5.453125 4.289062 5.492188 4.277344 5.546875 4.238281 C 5.636719 4.203125 5.730469 4.1875 5.828125 4.167969 C 5.859375 4.164062 5.890625 4.15625 5.925781 4.148438 C 5.976562 4.140625 6.023438 4.136719 6.074219 4.136719 C 6.105469 4.136719 6.105469 4.136719 6.136719 4.136719 C 6.167969 4.136719 6.167969 4.136719 6.199219 4.136719 C 6.222656 4.136719 6.242188 4.136719 6.265625 4.136719 C 6.339844 4.136719 6.414062 4.136719 6.492188 4.140625 C 6.542969 4.140625 6.59375 4.140625 6.644531 4.140625 C 6.765625 4.140625 6.886719 4.140625 7.011719 4.140625 C 7.148438 4.140625 7.289062 4.140625 7.425781 4.140625 C 7.710938 4.140625 7.996094 4.140625 8.28125 4.140625 C 8.289062 4.113281 8.292969 4.085938 8.300781 4.058594 C 8.304688 4.035156 8.304688 4.035156 8.3125 4.011719 C 8.324219 3.949219 8.328125 3.890625 8.328125 3.828125 C 8.335938 3.714844 8.355469 3.636719 8.398438 3.535156 C 8.414062 3.484375 8.425781 3.429688 8.4375 3.378906 C 8.449219 3.378906 8.464844 3.378906 8.476562 3.378906 C 8.476562 3.359375 8.480469 3.335938 8.484375 3.316406 C 8.5 3.226562 8.53125 3.175781 8.585938 3.105469 C 8.617188 3.066406 8.617188 3.066406 8.632812 3.015625 C 8.652344 2.96875 8.652344 2.96875 8.691406 2.949219 C 8.710938 2.9375 8.710938 2.9375 8.730469 2.929688 C 8.734375 2.914062 8.734375 2.898438 8.738281 2.882812 C 8.753906 2.820312 8.773438 2.796875 8.820312 2.75 C 8.84375 2.730469 8.84375 2.730469 8.863281 2.707031 C 8.886719 2.683594 8.886719 2.683594 8.910156 2.660156 C 8.925781 2.644531 8.941406 2.628906 8.957031 2.613281 C 8.972656 2.601562 8.984375 2.585938 9 2.570312 C 9.015625 2.558594 9.027344 2.542969 9.039062 2.53125 C 9.085938 2.496094 9.121094 2.492188 9.179688 2.480469 C 9.1875 2.460938 9.1875 2.460938 9.199219 2.445312 C 9.230469 2.382812 9.273438 2.371094 9.335938 2.34375 C 9.351562 2.335938 9.367188 2.324219 9.382812 2.316406 C 9.492188 2.25 9.601562 2.199219 9.726562 2.167969 C 9.78125 2.148438 9.835938 2.132812 9.890625 2.109375 C 9.949219 2.085938 9.992188 2.085938 10.054688 2.085938 C 10.082031 2.085938 10.082031 2.085938 10.113281 2.089844 C 10.128906 2.089844 10.140625 2.089844 10.15625 2.089844 C 10.15625 2.078125 10.15625 2.0625 10.15625 2.050781 C 10.175781 2.058594 10.195312 2.0625 10.214844 2.070312 C 10.242188 2.070312 10.269531 2.070312 10.296875 2.070312 C 10.320312 2.070312 10.34375 2.070312 10.371094 2.070312 C 10.371094 2.058594 10.371094 2.042969 10.371094 2.03125 Z M 4.648438 4.84375 C 4.65625 4.855469 4.660156 4.871094 4.667969 4.882812 C 4.675781 4.871094 4.679688 4.855469 4.6875 4.84375 C 4.675781 4.84375 4.660156 4.84375 4.648438 4.84375 Z M 4.414062 5.175781 C 4.433594 5.214844 4.433594 5.214844 4.433594 5.214844 Z M 20.3125 22.109375 C 20.304688 22.121094 20.300781 22.136719 20.292969 22.148438 C 20.304688 22.148438 20.320312 22.148438 20.332031 22.148438 C 20.324219 22.136719 20.320312 22.121094 20.3125 22.109375 Z M 19.960938 22.460938 C 19.980469 22.5 19.980469 22.5 19.980469 22.5 Z M 19.804688 22.558594 C 19.8125 22.570312 19.816406 22.585938 19.824219 22.597656 C 19.835938 22.585938 19.851562 22.570312 19.863281 22.558594 C 19.84375 22.558594 19.824219 22.558594 19.804688 22.558594 Z M 19.804688 22.558594 "/>
<path style=" stroke:none;fill-rule:nonzero;fill:rgb(5.098039%,58.823529%,93.72549%);fill-opacity:1;" d="M 10.371094 2.03125 C 10.914062 2.03125 11.457031 2.03125 12 2.03125 C 12.253906 2.03125 12.507812 2.03125 12.757812 2.03125 C 12.980469 2.03125 13.199219 2.03125 13.417969 2.03125 C 13.535156 2.03125 13.652344 2.03125 13.769531 2.027344 C 13.878906 2.027344 13.988281 2.027344 14.097656 2.027344 C 14.136719 2.027344 14.179688 2.027344 14.21875 2.027344 C 14.273438 2.027344 14.328125 2.027344 14.382812 2.027344 C 14.398438 2.027344 14.414062 2.027344 14.429688 2.027344 C 14.5 2.027344 14.5625 2.03125 14.628906 2.050781 C 14.65625 2.050781 14.683594 2.050781 14.710938 2.050781 C 14.734375 2.050781 14.761719 2.050781 14.785156 2.050781 C 14.785156 2.0625 14.785156 2.078125 14.785156 2.089844 C 14.796875 2.089844 14.808594 2.089844 14.820312 2.089844 C 15.050781 2.082031 15.238281 2.152344 15.445312 2.246094 C 15.484375 2.265625 15.523438 2.28125 15.5625 2.296875 C 15.621094 2.320312 15.644531 2.339844 15.683594 2.382812 C 15.714844 2.402344 15.75 2.421875 15.78125 2.441406 C 15.890625 2.507812 15.976562 2.574219 16.058594 2.675781 C 16.109375 2.730469 16.164062 2.78125 16.21875 2.835938 C 16.25 2.871094 16.269531 2.902344 16.289062 2.949219 C 16.320312 3.003906 16.34375 3.042969 16.386719 3.082031 C 16.4375 3.136719 16.445312 3.191406 16.464844 3.261719 C 16.472656 3.269531 16.484375 3.28125 16.492188 3.289062 C 16.5625 3.359375 16.582031 3.46875 16.585938 3.5625 C 16.585938 3.582031 16.582031 3.597656 16.582031 3.613281 C 16.578125 3.636719 16.578125 3.636719 16.609375 3.667969 C 16.6875 3.78125 16.664062 3.953125 16.640625 4.082031 C 16.660156 4.089844 16.679688 4.09375 16.699219 4.101562 C 16.695312 4.117188 16.695312 4.128906 16.691406 4.144531 C 16.664062 4.285156 16.65625 4.417969 16.65625 4.5625 C 16.65625 4.582031 16.65625 4.605469 16.65625 4.625 C 16.65625 4.671875 16.65625 4.71875 16.65625 4.761719 C 16.65625 4.835938 16.65625 4.90625 16.65625 4.980469 C 16.652344 5.1875 16.652344 5.394531 16.652344 5.597656 C 16.652344 5.726562 16.652344 5.851562 16.652344 5.980469 C 16.652344 6.027344 16.652344 6.074219 16.652344 6.121094 C 16.652344 6.761719 16.472656 7.289062 16.023438 7.75 C 15.890625 7.875 15.746094 7.972656 15.585938 8.066406 C 15.5625 8.078125 15.542969 8.089844 15.519531 8.105469 C 15.226562 8.261719 14.90625 8.324219 14.574219 8.324219 C 14.554688 8.324219 14.539062 8.324219 14.519531 8.324219 C 14.457031 8.324219 14.394531 8.324219 14.335938 8.324219 C 14.289062 8.324219 14.246094 8.324219 14.203125 8.324219 C 14.082031 8.324219 13.960938 8.324219 13.84375 8.324219 C 13.765625 8.324219 13.691406 8.324219 13.617188 8.324219 C 13.367188 8.324219 13.121094 8.324219 12.871094 8.324219 C 12.859375 8.324219 12.84375 8.324219 12.832031 8.324219 C 12.816406 8.324219 12.804688 8.324219 12.789062 8.324219 C 12.574219 8.324219 12.359375 8.324219 12.140625 8.324219 C 11.917969 8.324219 11.695312 8.324219 11.472656 8.324219 C 11.347656 8.324219 11.222656 8.324219 11.097656 8.324219 C 10.980469 8.324219 10.863281 8.324219 10.742188 8.324219 C 10.703125 8.324219 10.65625 8.324219 10.617188 8.324219 C 9.9375 8.328125 9.378906 8.152344 8.886719 7.675781 C 8.679688 7.472656 8.542969 7.234375 8.441406 6.964844 C 8.4375 6.953125 8.429688 6.9375 8.425781 6.921875 C 8.308594 6.605469 8.3125 6.285156 8.308594 5.953125 C 8.308594 5.90625 8.308594 5.863281 8.308594 5.820312 C 8.308594 5.660156 8.308594 5.5 8.308594 5.34375 C 8.304688 4.984375 8.304688 4.625 8.300781 4.257812 C 7.519531 4.25 6.742188 4.246094 5.9375 4.238281 C 5.9375 4.230469 5.9375 4.226562 5.9375 4.21875 C 7.105469 4.210938 7.105469 4.210938 8.300781 4.199219 C 8.308594 4.1875 8.3125 4.171875 8.320312 4.160156 C 8.292969 4.148438 8.292969 4.148438 8.261719 4.140625 C 8.273438 4.128906 8.289062 4.113281 8.300781 4.101562 C 8.308594 4.0625 8.308594 4.0625 8.3125 4.011719 C 8.3125 3.988281 8.3125 3.988281 8.316406 3.960938 C 8.316406 3.921875 8.320312 3.886719 8.324219 3.847656 C 8.332031 3.734375 8.351562 3.640625 8.398438 3.535156 C 8.40625 3.507812 8.414062 3.476562 8.421875 3.445312 C 8.425781 3.425781 8.433594 3.402344 8.4375 3.378906 C 8.449219 3.378906 8.464844 3.378906 8.476562 3.378906 C 8.476562 3.359375 8.480469 3.335938 8.484375 3.316406 C 8.5 3.226562 8.53125 3.175781 8.585938 3.105469 C 8.617188 3.066406 8.617188 3.066406 8.632812 3.015625 C 8.652344 2.96875 8.652344 2.96875 8.691406 2.949219 C 8.710938 2.9375 8.710938 2.9375 8.730469 2.929688 C 8.734375 2.914062 8.734375 2.898438 8.738281 2.882812 C 8.753906 2.820312 8.773438 2.796875 8.820312 2.75 C 8.84375 2.730469 8.84375 2.730469 8.863281 2.707031 C 8.886719 2.683594 8.886719 2.683594 8.910156 2.660156 C 8.925781 2.644531 8.941406 2.628906 8.957031 2.613281 C 8.972656 2.601562 8.984375 2.585938 9 2.570312 C 9.015625 2.558594 9.027344 2.542969 9.039062 2.53125 C 9.085938 2.496094 9.121094 2.492188 9.179688 2.480469 C 9.1875 2.46875 9.191406 2.457031 9.199219 2.445312 C 9.230469 2.382812 9.273438 2.371094 9.335938 2.34375 C 9.351562 2.335938 9.367188 2.324219 9.382812 2.316406 C 9.492188 2.25 9.601562 2.199219 9.726562 2.167969 C 9.78125 2.148438 9.835938 2.132812 9.890625 2.109375 C 9.949219 2.085938 9.992188 2.085938 10.054688 2.085938 C 10.082031 2.085938 10.082031 2.085938 10.113281 2.089844 C 10.128906 2.089844 10.140625 2.089844 10.15625 2.089844 C 10.15625 2.078125 10.15625 2.0625 10.15625 2.050781 C 10.175781 2.058594 10.195312 2.0625 10.214844 2.070312 C 10.242188 2.070312 10.269531 2.070312 10.296875 2.070312 C 10.320312 2.070312 10.34375 2.070312 10.371094 2.070312 C 10.371094 2.058594 10.371094 2.042969 10.371094 2.03125 Z M 10.371094 2.03125 "/>
<path style=" stroke:none;fill-rule:nonzero;fill:rgb(37.254902%,70.980392%,96.470588%);fill-opacity:1;" d="M 9.554688 16.636719 C 9.582031 16.636719 9.605469 16.636719 9.632812 16.636719 C 9.707031 16.636719 9.777344 16.636719 9.851562 16.636719 C 9.925781 16.636719 10.003906 16.636719 10.082031 16.636719 C 10.269531 16.636719 10.460938 16.636719 10.648438 16.636719 C 10.734375 16.636719 10.824219 16.636719 10.914062 16.636719 C 11.207031 16.636719 11.503906 16.636719 11.796875 16.636719 C 11.875 16.636719 11.949219 16.636719 12.027344 16.636719 C 12.046875 16.636719 12.066406 16.636719 12.085938 16.636719 C 12.390625 16.632812 12.699219 16.632812 13.007812 16.632812 C 13.324219 16.632812 13.640625 16.632812 13.957031 16.632812 C 14.132812 16.632812 14.308594 16.632812 14.488281 16.632812 C 14.640625 16.632812 14.789062 16.632812 14.941406 16.632812 C 15.019531 16.632812 15.09375 16.632812 15.171875 16.632812 C 16.011719 16.628906 16.011719 16.628906 16.332031 16.925781 C 16.535156 17.140625 16.652344 17.402344 16.648438 17.703125 C 16.648438 17.71875 16.648438 17.738281 16.648438 17.753906 C 16.644531 17.992188 16.578125 18.175781 16.425781 18.359375 C 16.410156 18.375 16.398438 18.394531 16.382812 18.410156 C 16.21875 18.589844 15.992188 18.71875 15.742188 18.734375 C 15.671875 18.734375 15.601562 18.734375 15.53125 18.734375 C 15.507812 18.734375 15.480469 18.734375 15.453125 18.734375 C 15.378906 18.734375 15.304688 18.734375 15.226562 18.734375 C 15.148438 18.734375 15.066406 18.738281 14.988281 18.738281 C 14.832031 18.738281 14.671875 18.738281 14.515625 18.738281 C 14.386719 18.738281 14.257812 18.738281 14.132812 18.738281 C 13.769531 18.738281 13.40625 18.738281 13.042969 18.738281 C 13.023438 18.738281 13.003906 18.738281 12.984375 18.738281 C 12.964844 18.738281 12.945312 18.738281 12.925781 18.738281 C 12.605469 18.738281 12.289062 18.738281 11.972656 18.738281 C 11.648438 18.738281 11.320312 18.738281 10.996094 18.738281 C 10.8125 18.738281 10.628906 18.738281 10.445312 18.738281 C 10.289062 18.742188 10.132812 18.742188 9.980469 18.738281 C 9.898438 18.738281 9.820312 18.738281 9.742188 18.742188 C 9.667969 18.742188 9.59375 18.742188 9.523438 18.742188 C 9.484375 18.738281 9.445312 18.742188 9.40625 18.742188 C 9.074219 18.738281 8.828125 18.628906 8.585938 18.40625 C 8.394531 18.203125 8.3125 17.945312 8.3125 17.671875 C 8.320312 17.394531 8.441406 17.152344 8.625 16.949219 C 8.890625 16.699219 9.203125 16.636719 9.554688 16.636719 Z M 9.554688 16.636719 "/>
<path style=" stroke:none;fill-rule:nonzero;fill:rgb(37.254902%,70.980392%,96.470588%);fill-opacity:1;" d="M 9.554688 13.511719 C 9.582031 13.511719 9.605469 13.511719 9.632812 13.511719 C 9.707031 13.511719 9.777344 13.511719 9.851562 13.511719 C 9.925781 13.511719 10.003906 13.511719 10.082031 13.511719 C 10.269531 13.511719 10.460938 13.511719 10.648438 13.511719 C 10.734375 13.511719 10.824219 13.511719 10.914062 13.511719 C 11.207031 13.511719 11.503906 13.511719 11.796875 13.511719 C 11.875 13.511719 11.949219 13.511719 12.027344 13.511719 C 12.046875 13.511719 12.066406 13.511719 12.085938 13.511719 C 12.390625 13.507812 12.699219 13.507812 13.007812 13.507812 C 13.324219 13.507812 13.640625 13.507812 13.957031 13.507812 C 14.132812 13.507812 14.308594 13.507812 14.488281 13.507812 C 14.640625 13.507812 14.789062 13.507812 14.941406 13.507812 C 15.019531 13.507812 15.09375 13.507812 15.171875 13.507812 C 16.011719 13.503906 16.011719 13.503906 16.332031 13.800781 C 16.535156 14.015625 16.652344 14.277344 16.648438 14.578125 C 16.648438 14.59375 16.648438 14.613281 16.648438 14.628906 C 16.644531 14.867188 16.578125 15.050781 16.425781 15.234375 C 16.410156 15.25 16.398438 15.269531 16.382812 15.285156 C 16.21875 15.464844 15.992188 15.59375 15.742188 15.609375 C 15.671875 15.609375 15.601562 15.609375 15.53125 15.609375 C 15.507812 15.609375 15.480469 15.609375 15.453125 15.609375 C 15.378906 15.609375 15.304688 15.609375 15.226562 15.609375 C 15.148438 15.609375 15.066406 15.613281 14.988281 15.613281 C 14.832031 15.613281 14.671875 15.613281 14.515625 15.613281 C 14.386719 15.613281 14.257812 15.613281 14.132812 15.613281 C 13.769531 15.613281 13.40625 15.613281 13.042969 15.613281 C 13.023438 15.613281 13.003906 15.613281 12.984375 15.613281 C 12.964844 15.613281 12.945312 15.613281 12.925781 15.613281 C 12.605469 15.613281 12.289062 15.613281 11.972656 15.613281 C 11.648438 15.613281 11.320312 15.613281 10.996094 15.613281 C 10.8125 15.613281 10.628906 15.613281 10.445312 15.613281 C 10.289062 15.617188 10.132812 15.617188 9.980469 15.613281 C 9.898438 15.613281 9.820312 15.613281 9.742188 15.617188 C 9.667969 15.617188 9.59375 15.617188 9.523438 15.617188 C 9.484375 15.613281 9.445312 15.617188 9.40625 15.617188 C 9.074219 15.613281 8.828125 15.503906 8.585938 15.28125 C 8.394531 15.078125 8.3125 14.820312 8.3125 14.546875 C 8.320312 14.269531 8.441406 14.027344 8.625 13.824219 C 8.890625 13.574219 9.203125 13.511719 9.554688 13.511719 Z M 9.554688 13.511719 "/>
<path style=" stroke:none;fill-rule:nonzero;fill:rgb(37.254902%,70.980392%,96.470588%);fill-opacity:1;" d="M 10.699219 9.347656 C 10.746094 9.347656 10.789062 9.347656 10.832031 9.347656 C 10.949219 9.347656 11.066406 9.347656 11.183594 9.347656 C 11.304688 9.347656 11.429688 9.347656 11.550781 9.347656 C 11.769531 9.347656 11.992188 9.347656 12.210938 9.347656 C 12.410156 9.347656 12.609375 9.347656 12.808594 9.347656 C 13.039062 9.347656 13.269531 9.347656 13.5 9.347656 C 13.625 9.347656 13.746094 9.347656 13.867188 9.347656 C 13.984375 9.347656 14.097656 9.347656 14.210938 9.347656 C 14.253906 9.347656 14.296875 9.347656 14.339844 9.347656 C 14.703125 9.347656 15.019531 9.378906 15.300781 9.640625 C 15.515625 9.871094 15.617188 10.148438 15.613281 10.460938 C 15.601562 10.75 15.488281 10.996094 15.277344 11.195312 C 15.042969 11.382812 14.800781 11.449219 14.507812 11.449219 C 14.488281 11.449219 14.46875 11.449219 14.453125 11.449219 C 14.390625 11.449219 14.332031 11.449219 14.273438 11.449219 C 14.230469 11.449219 14.1875 11.449219 14.144531 11.449219 C 14.027344 11.449219 13.910156 11.449219 13.792969 11.449219 C 13.722656 11.449219 13.648438 11.449219 13.574219 11.449219 C 13.347656 11.449219 13.121094 11.449219 12.890625 11.449219 C 12.867188 11.449219 12.839844 11.449219 12.8125 11.449219 C 12.800781 11.449219 12.789062 11.449219 12.773438 11.449219 C 12.5625 11.449219 12.351562 11.449219 12.144531 11.449219 C 11.925781 11.453125 11.710938 11.453125 11.492188 11.453125 C 11.371094 11.453125 11.25 11.453125 11.128906 11.453125 C 11.015625 11.453125 10.902344 11.453125 10.785156 11.453125 C 10.746094 11.453125 10.703125 11.453125 10.660156 11.453125 C 10.246094 11.453125 9.929688 11.394531 9.617188 11.101562 C 9.425781 10.898438 9.339844 10.617188 9.347656 10.34375 C 9.375 10.070312 9.507812 9.800781 9.707031 9.613281 C 10.015625 9.375 10.324219 9.347656 10.699219 9.347656 Z M 10.699219 9.347656 "/>
<path style=" stroke:none;fill-rule:nonzero;fill:rgb(22.745098%,65.882353%,94.901961%);fill-opacity:1;" d="M 9.082031 2.5 C 9.121094 2.507812 9.121094 2.507812 9.160156 2.519531 C 9.121094 2.539062 9.121094 2.539062 9.082031 2.558594 C 9.082031 2.539062 9.082031 2.519531 9.082031 2.5 Z M 9.023438 2.558594 C 9.035156 2.570312 9.050781 2.585938 9.0625 2.597656 C 9.042969 2.617188 9.027344 2.632812 9.007812 2.652344 C 8.984375 2.675781 8.960938 2.699219 8.9375 2.722656 C 8.925781 2.734375 8.914062 2.742188 8.902344 2.757812 C 8.890625 2.765625 8.878906 2.777344 8.867188 2.789062 C 8.859375 2.800781 8.847656 2.8125 8.835938 2.820312 C 8.804688 2.855469 8.804688 2.855469 8.769531 2.910156 C 8.757812 2.875 8.757812 2.875 8.75 2.832031 C 8.773438 2.796875 8.773438 2.796875 8.808594 2.765625 C 8.820312 2.753906 8.832031 2.742188 8.84375 2.726562 C 8.859375 2.714844 8.871094 2.703125 8.886719 2.691406 C 8.90625 2.671875 8.90625 2.671875 8.925781 2.652344 C 8.957031 2.621094 8.992188 2.589844 9.023438 2.558594 Z M 9.023438 2.558594 "/>
<path style=" stroke:none;fill-rule:nonzero;fill:rgb(25.882353%,63.529412%,90.196078%);fill-opacity:1;" d="M 20.292969 22.148438 C 20.304688 22.15625 20.320312 22.160156 20.332031 22.167969 C 20.222656 22.277344 20.113281 22.386719 20 22.5 C 20 22.441406 20 22.441406 20.03125 22.40625 C 20.042969 22.390625 20.058594 22.378906 20.070312 22.367188 C 20.085938 22.351562 20.101562 22.339844 20.113281 22.324219 C 20.128906 22.3125 20.140625 22.296875 20.15625 22.285156 C 20.175781 22.265625 20.195312 22.246094 20.210938 22.230469 C 20.238281 22.203125 20.265625 22.175781 20.292969 22.148438 Z M 20.292969 22.148438 "/>
<path style=" stroke:none;fill-rule:nonzero;fill:rgb(0%,0%,0.784314%);fill-opacity:1;" d="M 19.023438 22.890625 C 19.074219 22.890625 19.125 22.890625 19.179688 22.890625 C 19.179688 22.898438 19.179688 22.902344 19.179688 22.910156 C 19.128906 22.910156 19.078125 22.910156 19.023438 22.910156 C 19.023438 22.902344 19.023438 22.898438 19.023438 22.890625 Z M 19.023438 22.890625 "/>
<path style=" stroke:none;fill-rule:nonzero;fill:rgb(0%,0%,0.784314%);fill-opacity:1;" d="M 5.820312 22.890625 C 5.871094 22.890625 5.921875 22.890625 5.976562 22.890625 C 5.976562 22.898438 5.976562 22.902344 5.976562 22.910156 C 5.925781 22.910156 5.875 22.910156 5.820312 22.910156 C 5.820312 22.902344 5.820312 22.898438 5.820312 22.890625 Z M 5.820312 22.890625 "/>
<path style=" stroke:none;fill-rule:nonzero;fill:rgb(37.254902%,70.980392%,96.470588%);fill-opacity:1;" d="M 16.660156 3.964844 C 16.667969 3.964844 16.671875 3.964844 16.679688 3.964844 C 16.679688 3.996094 16.679688 4.03125 16.679688 4.0625 C 16.671875 4.0625 16.667969 4.0625 16.660156 4.0625 C 16.660156 4.03125 16.660156 4 16.660156 3.964844 Z M 16.660156 3.964844 "/>
<path style=" stroke:none;fill-rule:nonzero;fill:rgb(0%,0%,0.784314%);fill-opacity:1;" d="M 20.800781 21.210938 C 20.820312 21.289062 20.820312 21.289062 20.820312 21.289062 Z M 20.800781 21.210938 "/>
<path style=" stroke:none;fill-rule:nonzero;fill:rgb(0%,0%,0.784314%);fill-opacity:1;" d="M 19.453125 22.792969 C 19.492188 22.8125 19.492188 22.8125 19.492188 22.8125 Z M 19.453125 22.792969 "/>
<path style=" stroke:none;fill-rule:nonzero;fill:rgb(0%,0%,0.784314%);fill-opacity:1;" d="M 5.507812 22.792969 C 5.546875 22.8125 5.546875 22.8125 5.546875 22.8125 Z M 5.507812 22.792969 "/>
</g>
</svg>
