<svg width="60" height="60" viewBox="0 0 60 60" fill="none" xmlns="http://www.w3.org/2000/svg">
<path d="M12.9259 8.01465C7.80696 8.01465 3.6416 12.18 3.6416 17.2989V42.6992C3.6416 47.8181 7.80696 51.9835 12.9259 51.9835H47.0734C52.1924 51.9835 56.3577 47.8181 56.3577 42.6992V17.2989C56.3577 12.18 52.1924 8.01465 47.0734 8.01465H12.9259ZM12.9259 10.9433H47.0734C50.62 10.9433 53.4291 13.7526 53.4291 17.2989V42.6992C53.4291 46.2458 50.62 49.0548 47.0734 49.0548H12.9259C9.37933 49.0548 6.57028 46.2458 6.57028 42.6992V17.2989C6.57028 13.7526 9.37933 10.9433 12.9259 10.9433Z" fill="#1976D2"/>
</svg>
