<svg width="25" height="25" viewBox="0 0 25 25" fill="none" xmlns="http://www.w3.org/2000/svg">
<g clip-path="url(#clip0_6485_80896)">
<path d="M21.875 21.875L15.625 15.625" stroke="#1976D2" stroke-width="2" stroke-linecap="round" stroke-linejoin="round"/>
<path d="M3.4043 12.5446C3.85946 14.027 4.77431 15.3263 6.01655 16.2545C7.2588 17.1827 8.76407 17.6918 10.3147 17.7081C12.1084 17.7303 13.8476 17.0915 15.2006 15.9137C16.5536 14.7359 17.4259 13.1013 17.6512 11.3217C17.8728 9.54201 17.4308 7.74308 16.4096 6.26878C15.3884 4.79448 13.8597 3.74823 12.1158 3.33001C10.3714 2.90808 8.53278 3.14225 6.94987 3.98797C5.36696 4.83368 4.15027 6.23189 3.53138 7.91647" stroke="#1976D2" stroke-width="2" stroke-linecap="round" stroke-linejoin="round"/>
<path d="M3.125 4.16699V8.33366H7.29167" stroke="#1976D2" stroke-width="2" stroke-linecap="round" stroke-linejoin="round"/>
</g>
<defs>
<clipPath id="clip0_6485_80896">
<rect width="25" height="25" fill="white"/>
</clipPath>
</defs>
</svg>
