<svg width="32" height="32" viewBox="0 0 32 32" fill="none" xmlns="http://www.w3.org/2000/svg">
<g clip-path="url(#clip0_6914_81114)">
<rect y="2" width="30" height="30" rx="10" fill="#1976D2"/>
<path d="M7.41406 10.6699L9.00781 15.9812M16.0166 22.9924L21.3303 24.5862" stroke="white" stroke-width="2" stroke-linecap="round" stroke-linejoin="round"/>
<path d="M14.6035 17.396L21.8023 10.1973" stroke="white" stroke-width="2" stroke-linecap="round" stroke-linejoin="round"/>
<path d="M5 8.875C5 9.12123 5.0485 9.36505 5.14273 9.59253C5.23695 9.82002 5.37506 10.0267 5.54917 10.2008C5.72328 10.3749 5.92998 10.513 6.15747 10.6073C6.38495 10.7015 6.62877 10.75 6.875 10.75C7.12123 10.75 7.36505 10.7015 7.59253 10.6073C7.82002 10.513 8.02672 10.3749 8.20083 10.2008C8.37494 10.0267 8.51305 9.82002 8.60727 9.59253C8.7015 9.36505 8.75 9.12123 8.75 8.875C8.75 8.62877 8.7015 8.38495 8.60727 8.15747C8.51305 7.92998 8.37494 7.72328 8.20083 7.54917C8.02672 7.37506 7.82002 7.23695 7.59253 7.14273C7.36505 7.0485 7.12123 7 6.875 7C6.62877 7 6.38495 7.0485 6.15747 7.14273C5.92998 7.23695 5.72328 7.37506 5.54917 7.54917C5.37506 7.72328 5.23695 7.92998 5.14273 8.15747C5.0485 8.38495 5 8.62877 5 8.875Z" stroke="white" stroke-width="2" stroke-linecap="round" stroke-linejoin="round"/>
<path d="M21.25 8.875C21.25 9.37228 21.4475 9.84919 21.7992 10.2008C22.1508 10.5525 22.6277 10.75 23.125 10.75C23.6223 10.75 24.0992 10.5525 24.4508 10.2008C24.8025 9.84919 25 9.37228 25 8.875C25 8.37772 24.8025 7.90081 24.4508 7.54917C24.0992 7.19754 23.6223 7 23.125 7C22.6277 7 22.1508 7.19754 21.7992 7.54917C21.4475 7.90081 21.25 8.37772 21.25 8.875Z" stroke="white" stroke-width="2" stroke-linecap="round" stroke-linejoin="round"/>
<path d="M21.25 25.125C21.25 25.6223 21.4475 26.0992 21.7992 26.4508C22.1508 26.8025 22.6277 27 23.125 27C23.6223 27 24.0992 26.8025 24.4508 26.4508C24.8025 26.0992 25 25.6223 25 25.125C25 24.6277 24.8025 24.1508 24.4508 23.7992C24.0992 23.4475 23.6223 23.25 23.125 23.25C22.6277 23.25 22.1508 23.4475 21.7992 23.7992C21.4475 24.1508 21.25 24.6277 21.25 25.125Z" stroke="white" stroke-width="2" stroke-linecap="round" stroke-linejoin="round"/>
<path d="M5 21.375C5 22.8668 5.59263 24.2976 6.64752 25.3525C7.70242 26.4074 9.13316 27 10.625 27C12.1168 27 13.5476 26.4074 14.6025 25.3525C15.6574 24.2976 16.25 22.8668 16.25 21.375C16.25 19.8832 15.6574 18.4524 14.6025 17.3975C13.5476 16.3426 12.1168 15.75 10.625 15.75C9.13316 15.75 7.70242 16.3426 6.64752 17.3975C5.59263 18.4524 5 19.8832 5 21.375Z" stroke="white" stroke-width="2" stroke-linecap="round" stroke-linejoin="round"/>
</g>
<circle cx="26" cy="6" r="5.5" fill="#FF0000" stroke="white"/>
<defs>
<clipPath id="clip0_6914_81114">
<rect y="2" width="30" height="30" rx="10" fill="white"/>
</clipPath>
</defs>
</svg>
