<svg width="25" height="25" viewBox="0 0 25 25" fill="none" xmlns="http://www.w3.org/2000/svg">
<g clip-path="url(#clip0_6200_81443)">
<path d="M16.2503 11.2399C17.2607 10.542 17.9691 9.39616 17.9691 8.33366C17.9691 5.97949 16.1462 4.16699 13.8024 4.16699H7.29199V18.7503H14.6253C16.8024 18.7503 18.4899 16.9795 18.4899 14.8024C18.4899 13.2191 17.5941 11.8649 16.2503 11.2399V11.2399ZM10.417 6.77116H13.542C14.4066 6.77116 15.1045 7.46908 15.1045 8.33366C15.1045 9.19824 14.4066 9.89616 13.542 9.89616H10.417V6.77116ZM14.0628 16.1462H10.417V13.0212H14.0628C14.9274 13.0212 15.6253 13.7191 15.6253 14.5837C15.6253 15.4482 14.9274 16.1462 14.0628 16.1462Z" fill="#1976D2"/>
</g>
<defs>
<clipPath id="clip0_6200_81443">
<rect width="25" height="25" fill="white"/>
</clipPath>
</defs>
</svg>
