<svg width="60" height="60" viewBox="0 0 60 60" fill="none" xmlns="http://www.w3.org/2000/svg">
<g clip-path="url(#clip0_6603_80899)">
<path d="M12.5 45C12.5 46.3261 13.0268 47.5979 13.9645 48.5355C14.9021 49.4732 16.1739 50 17.5 50C18.8261 50 20.0979 49.4732 21.0355 48.5355C21.9732 47.5979 22.5 46.3261 22.5 45C22.5 43.6739 21.9732 42.4021 21.0355 41.4645C20.0979 40.5268 18.8261 40 17.5 40C16.1739 40 14.9021 40.5268 13.9645 41.4645C13.0268 42.4021 12.5 43.6739 12.5 45Z" stroke="white" stroke-width="2" stroke-linecap="round" stroke-linejoin="round"/>
<path d="M12.5 15C12.5 16.3261 13.0268 17.5979 13.9645 18.5355C14.9021 19.4732 16.1739 20 17.5 20C18.8261 20 20.0979 19.4732 21.0355 18.5355C21.9732 17.5979 22.5 16.3261 22.5 15C22.5 13.6739 21.9732 12.4021 21.0355 11.4645C20.0979 10.5268 18.8261 10 17.5 10C16.1739 10 14.9021 10.5268 13.9645 11.4645C13.0268 12.4021 12.5 13.6739 12.5 15Z" stroke="white" stroke-width="2" stroke-linecap="round" stroke-linejoin="round"/>
<path d="M37.5 15C37.5 16.3261 38.0268 17.5979 38.9645 18.5355C39.9021 19.4732 41.1739 20 42.5 20C43.8261 20 45.0979 19.4732 46.0355 18.5355C46.9732 17.5979 47.5 16.3261 47.5 15C47.5 13.6739 46.9732 12.4021 46.0355 11.4645C45.0979 10.5268 43.8261 10 42.5 10C41.1739 10 39.9021 10.5268 38.9645 11.4645C38.0268 12.4021 37.5 13.6739 37.5 15Z" stroke="white" stroke-width="2" stroke-linecap="round" stroke-linejoin="round"/>
<path d="M17.5 20V40" stroke="white" stroke-width="2" stroke-linecap="round" stroke-linejoin="round"/>
<path d="M22.5 45H37.5C38.8261 45 40.0979 44.4732 41.0355 43.5355C41.9732 42.5979 42.5 41.3261 42.5 40V27.5" stroke="white" stroke-width="2" stroke-linecap="round" stroke-linejoin="round"/>
<path d="M35 35L42.5 27.5L50 35" stroke="white" stroke-width="2" stroke-linecap="round" stroke-linejoin="round"/>
</g>
<defs>
<clipPath id="clip0_6603_80899">
<rect width="60" height="60" fill="white"/>
</clipPath>
</defs>
</svg>
