<svg width="60" height="60" viewBox="0 0 60 60" fill="none" xmlns="http://www.w3.org/2000/svg">
<g clip-path="url(#clip0_6200_81371)">
<path d="M40 40V45C40 46.3261 39.4732 47.5979 38.5355 48.5355C37.5979 49.4732 36.3261 50 35 50H15C13.6739 50 12.4021 49.4732 11.4645 48.5355C10.5268 47.5979 10 46.3261 10 45V25C10 23.6739 10.5268 22.4021 11.4645 21.4645C12.4021 20.5268 13.6739 20 15 20H20V15C20 13.6739 20.5268 12.4021 21.4645 11.4645C22.4021 10.5268 23.6739 10 25 10H45C46.3261 10 47.5979 10.5268 48.5355 11.4645C49.4732 12.4021 50 13.6739 50 15V35C50 36.3261 49.4732 37.5979 48.5355 38.5355C47.5979 39.4732 46.3261 40 45 40H40Z" stroke="#1976D2" stroke-width="2" stroke-linecap="round" stroke-linejoin="round"/>
<path d="M25 20H20V25" stroke="black" stroke-width="2" stroke-linecap="round" stroke-linejoin="round"/>
<path d="M20 35V40H25" stroke="black" stroke-width="2" stroke-linecap="round" stroke-linejoin="round"/>
<path d="M35 20H40V25" stroke="black" stroke-width="2" stroke-linecap="round" stroke-linejoin="round"/>
<path d="M40 35V40H35" stroke="black" stroke-width="2" stroke-linecap="round" stroke-linejoin="round"/>
</g>
<defs>
<clipPath id="clip0_6200_81371">
<rect width="60" height="60" fill="white"/>
</clipPath>
</defs>
</svg>
