<svg width="60" height="60" viewBox="0 0 60 60" fill="none" xmlns="http://www.w3.org/2000/svg">
<g clip-path="url(#clip0_6477_80945)">
<path d="M7.5 30C7.5 32.9547 8.08198 35.8806 9.21271 38.6104C10.3434 41.3402 12.0008 43.8206 14.0901 45.9099C16.1794 47.9992 18.6598 49.6566 21.3896 50.7873C24.1194 51.918 27.0453 52.5 30 52.5C32.9547 52.5 35.8806 51.918 38.6104 50.7873C41.3402 49.6566 43.8206 47.9992 45.9099 45.9099C47.9992 43.8206 49.6566 41.3402 50.7873 38.6104C51.918 35.8806 52.5 32.9547 52.5 30C52.5 27.0453 51.918 24.1194 50.7873 21.3896C49.6566 18.6598 47.9992 16.1794 45.9099 14.0901C43.8206 12.0008 41.3402 10.3434 38.6104 9.21271C35.8806 8.08198 32.9547 7.5 30 7.5C27.0453 7.5 24.1194 8.08198 21.3896 9.21271C18.6598 10.3434 16.1794 12.0008 14.0901 14.0901C12.0008 16.1794 10.3434 18.6598 9.21271 21.3896C8.08198 24.1194 7.5 27.0453 7.5 30Z" fill="#A5D8FF" stroke="#1976D2" stroke-width="2" stroke-linecap="round" stroke-linejoin="round"/>
<path d="M9 22.5H51" stroke="#1976D2" stroke-width="2" stroke-linecap="round" stroke-linejoin="round"/>
<path d="M9 37.5H51" stroke="#1976D2" stroke-width="2" stroke-linecap="round" stroke-linejoin="round"/>
<path d="M28.7502 7.5C24.5385 14.249 22.3057 22.0447 22.3057 30C22.3057 37.9553 24.5385 45.751 28.7502 52.5" stroke="#1976D2" stroke-width="2" stroke-linecap="round" stroke-linejoin="round"/>
<path d="M31.25 7.5C35.4616 14.249 37.6945 22.0447 37.6945 30C37.6945 37.9553 35.4616 45.751 31.25 52.5" stroke="#1976D2" stroke-width="2" stroke-linecap="round" stroke-linejoin="round"/>
<g clip-path="url(#clip1_6477_80945)">
<path d="M42.5 47.5005C42.9073 47.9162 43.3936 48.2465 43.9302 48.472C44.4668 48.6975 45.043 48.8136 45.625 48.8136C46.207 48.8136 46.7832 48.6975 47.3198 48.472C47.8564 48.2465 48.3427 47.9162 48.75 47.5005L53.75 42.5005C54.5788 41.6717 55.0444 40.5476 55.0444 39.3755C55.0444 38.2034 54.5788 37.0793 53.75 36.2505C52.9212 35.4217 51.7971 34.9561 50.625 34.9561C49.4529 34.9561 48.3288 35.4217 47.5 36.2505L46.875 36.8755" stroke="black" stroke-width="2" stroke-linecap="round" stroke-linejoin="round"/>
<path d="M47.5005 42.4997C47.0931 42.0839 46.6069 41.7536 46.0703 41.5281C45.5337 41.3027 44.9575 41.1865 44.3755 41.1865C43.7934 41.1865 43.2172 41.3027 42.6806 41.5281C42.144 41.7536 41.6578 42.0839 41.2505 42.4997L36.2505 47.4997C35.4217 48.3285 34.9561 49.4526 34.9561 50.6247C34.9561 51.7968 35.4217 52.9209 36.2505 53.7497C37.0793 54.5785 38.2034 55.0441 39.3755 55.0441C40.5476 55.0441 41.6717 54.5785 42.5005 53.7497L43.1255 53.1247" stroke="black" stroke-width="2" stroke-linecap="round" stroke-linejoin="round"/>
</g>
</g>
<defs>
<clipPath id="clip0_6477_80945">
<rect width="60" height="60" fill="white"/>
</clipPath>
<clipPath id="clip1_6477_80945">
<rect width="30" height="30" fill="white" transform="translate(30 30)"/>
</clipPath>
</defs>
</svg>
