<svg width="25" height="25" viewBox="0 0 25 25" fill="none" xmlns="http://www.w3.org/2000/svg">
<g clip-path="url(#clip0_6200_81507)">
<path d="M7.29199 20.833C9.01788 20.833 10.417 19.4339 10.417 17.708C10.417 15.9821 9.01788 14.583 7.29199 14.583C5.5661 14.583 4.16699 15.9821 4.16699 17.708C4.16699 19.4339 5.5661 20.833 7.29199 20.833Z" stroke="black" stroke-width="2" stroke-linecap="round" stroke-linejoin="round"/>
<path d="M17.708 20.833C19.4339 20.833 20.833 19.4339 20.833 17.708C20.833 15.9821 19.4339 14.583 17.708 14.583C15.9821 14.583 14.583 15.9821 14.583 17.708C14.583 19.4339 15.9821 20.833 17.708 20.833Z" stroke="black" stroke-width="2" stroke-linecap="round" stroke-linejoin="round"/>
<path d="M9.53125 15.4691L18.75 4.16699" stroke="#1976D2" stroke-width="2" stroke-linecap="round" stroke-linejoin="round"/>
<path d="M6.25 4.16699L15.4688 15.4691" stroke="#1976D2" stroke-width="2" stroke-linecap="round" stroke-linejoin="round"/>
</g>
<defs>
<clipPath id="clip0_6200_81507">
<rect width="25" height="25" fill="white"/>
</clipPath>
</defs>
</svg>
