<svg width="60" height="60" viewBox="0 0 60 60" fill="none" xmlns="http://www.w3.org/2000/svg">
<path d="M37.5576 6.2373C28.9707 6.23732 20.3838 6.23733 11.7969 6.23736C11.7969 22.0795 11.7969 37.9216 11.7969 53.7637C23.932 53.7637 36.0671 53.7637 48.2022 53.7637C48.2022 41.5651 48.2022 29.3666 48.2022 17.168C44.654 13.5245 41.1058 9.88088 37.5576 6.2373ZM34.4314 8.9373C34.4314 12.6538 34.4314 16.3703 34.4314 20.0868C38.1217 20.0868 41.812 20.0868 45.5022 20.0868C45.5022 30.4124 45.5022 40.738 45.5022 51.0637C35.1671 51.0637 24.832 51.0637 14.4969 51.0637C14.4969 37.0216 14.4969 22.9795 14.4969 8.93736C21.1417 8.93734 27.7866 8.93733 34.4314 8.9373ZM37.1314 9.66967C39.6364 12.242 42.1415 14.8144 44.6465 17.3868C42.1415 17.3868 39.6364 17.3868 37.1314 17.3868C37.1314 14.8144 37.1314 12.242 37.1314 9.66967Z" fill="#1976D2"/>
</svg>
