<svg width="60" height="60" viewBox="0 0 60 60" fill="none" xmlns="http://www.w3.org/2000/svg">
<g clip-path="url(#clip0_6200_81358)">
<path d="M45 7.5H15C12.2386 7.5 10 9.73858 10 12.5V47.5C10 50.2614 12.2386 52.5 15 52.5H45C47.7614 52.5 50 50.2614 50 47.5V12.5C50 9.73858 47.7614 7.5 45 7.5Z" fill="#A5D8FF" stroke="#1976D2" stroke-width="2" stroke-linecap="round" stroke-linejoin="round"/>
<path d="M37.5 17.5H22.5C21.1193 17.5 20 18.6193 20 20V22.5C20 23.8807 21.1193 25 22.5 25H37.5C38.8807 25 40 23.8807 40 22.5V20C40 18.6193 38.8807 17.5 37.5 17.5Z" stroke="#1976D2" stroke-width="2" stroke-linecap="round" stroke-linejoin="round"/>
<path d="M20 35V35.025" stroke="#1976D2" stroke-width="2" stroke-linecap="round" stroke-linejoin="round"/>
<path d="M30 35V35.025" stroke="#1976D2" stroke-width="2" stroke-linecap="round" stroke-linejoin="round"/>
<path d="M40 35V35.025" stroke="#1976D2" stroke-width="2" stroke-linecap="round" stroke-linejoin="round"/>
<path d="M20 42.5V42.525" stroke="#1976D2" stroke-width="2" stroke-linecap="round" stroke-linejoin="round"/>
<path d="M30 42.5V42.525" stroke="#1976D2" stroke-width="2" stroke-linecap="round" stroke-linejoin="round"/>
<path d="M40 42.5V42.525" stroke="#1976D2" stroke-width="2" stroke-linecap="round" stroke-linejoin="round"/>
</g>
<defs>
<clipPath id="clip0_6200_81358">
<rect width="60" height="60" fill="white"/>
</clipPath>
</defs>
</svg>
