<svg width="60" height="60" viewBox="0 0 60 60" fill="none" xmlns="http://www.w3.org/2000/svg">
<path d="M15.4638 6.88919C12.0887 6.92604 8.69034 9.44838 7.81505 12.9182C7.17275 15.3224 7.5678 17.8665 7.45742 20.3326V24.5585H10.4085C10.4621 21.1862 10.2978 17.8021 10.497 14.4375C10.8373 11.7172 13.336 9.66773 15.9007 9.81371H28.8497V6.87881C24.3879 6.87881 19.9251 6.85046 15.4638 6.87881L15.4638 6.88919ZM34.3956 9.8144H37.1709V6.87915H34.3956V9.8144ZM42.7168 9.8144C44.5469 9.71519 46.5633 9.87968 47.9258 11.3403C49.4234 12.7613 49.6619 14.9874 49.5476 16.9946V26.1204H52.5526C52.5081 22.2504 52.6422 18.3714 52.4845 14.5071C52.2385 10.5418 48.6974 7.11763 44.9435 6.93763C44.2049 6.84409 43.4588 6.90903 42.7167 6.88919C42.7168 7.86428 42.7168 8.8396 42.7168 9.8144ZM7.45742 33.3535H10.4085V30.4234H7.45742V33.3535ZM49.5476 34.9199H52.5526V31.985H49.5476V34.9199ZM7.45742 44.6737C7.46283 47.8796 9.47141 50.9856 12.2472 52.3082C14.7458 53.5409 17.5694 52.9555 20.2296 53.0933C20.8506 52.9317 22.0957 53.428 22.3039 52.8296V50.1588C19.7198 50.0964 17.123 50.2948 14.5481 50.0397C12.132 49.5289 10.327 47.0796 10.4085 44.482V39.2139H7.45742V44.6737ZM49.5476 44.5744C49.6039 47.4101 47.3661 50.0501 44.6572 50.13C41.8321 50.2179 38.9992 50.1582 36.1711 50.1667V53.102C39.2323 53.0424 42.3043 53.2182 45.3585 53.0113C49.0079 52.6292 52.3254 49.1889 52.5011 45.3149C52.6167 43.8131 52.5217 42.3005 52.5527 40.7945H49.5477L49.5476 44.5744ZM27.8499 53.103H30.6252V50.1677H27.8499V53.103Z" fill="#1976D2"/>
</svg>
