<svg width="90" height="90" viewBox="0 0 90 90" fill="none" xmlns="http://www.w3.org/2000/svg">
<g clip-path="url(#clip0_6828_81096)">
<path d="M63.75 63.75V71.25C63.75 73.2391 62.9598 75.1468 61.5533 76.5533C60.1468 77.9598 58.2391 78.75 56.25 78.75H18.75C16.7609 78.75 14.8532 77.9598 13.4467 76.5533C12.0402 75.1468 11.25 73.2391 11.25 71.25V37.5C11.25 35.5109 12.0402 33.6032 13.4467 32.1967C14.8532 30.7902 16.7609 30 18.75 30H26.25" fill="#A5D8FF"/>
<path d="M63.75 63.75V71.25C63.75 73.2391 62.9598 75.1468 61.5533 76.5533C60.1468 77.9598 58.2391 78.75 56.25 78.75H18.75C16.7609 78.75 14.8532 77.9598 13.4467 76.5533C12.0402 75.1468 11.25 73.2391 11.25 71.25V37.5C11.25 35.5109 12.0402 33.6032 13.4467 32.1967C14.8532 30.7902 16.7609 30 18.75 30H26.25" stroke="#1976D2" stroke-width="2" stroke-linecap="round" stroke-linejoin="round"/>
<path d="M63.75 63.75H33.75C31.7609 63.75 29.8532 62.9598 28.4467 61.5533C27.0402 60.1468 26.25 58.2391 26.25 56.25V26.25M30.6638 15.6638C31.605 15.2363 32.6512 15 33.75 15H45L52.5 22.5H71.25C73.2391 22.5 75.1468 23.2902 76.5533 24.6967C77.9598 26.1032 78.75 28.0109 78.75 30V56.25C78.75 58.3125 77.9137 60.1875 76.5637 61.5412" fill="#A5D8FF"/>
<path d="M63.75 63.75H33.75C31.7609 63.75 29.8532 62.9598 28.4467 61.5533C27.0402 60.1468 26.25 58.2391 26.25 56.25V26.25M30.6638 15.6638C31.605 15.2363 32.6512 15 33.75 15H45L52.5 22.5H71.25C73.2391 22.5 75.1468 23.2902 76.5533 24.6967C77.9598 26.1032 78.75 28.0109 78.75 30V56.25C78.75 58.3125 77.9137 60.1875 76.5637 61.5412" stroke="#1976D2" stroke-width="2" stroke-linecap="round" stroke-linejoin="round"/>
<path d="M18 11L85.5 78.5" stroke="#1976D2" stroke-width="5" stroke-linecap="round" stroke-linejoin="round"/>
</g>
<defs>
<clipPath id="clip0_6828_81096">
<rect width="90" height="90" fill="white"/>
</clipPath>
</defs>
</svg>
