<svg width="60" height="60" viewBox="0 0 60 60" fill="none" xmlns="http://www.w3.org/2000/svg">
<g clip-path="url(#clip0_6632_80916)">
<path d="M25.5 18H20.5C19.1193 18 18 18.7675 18 19.7143V40.2857C18 41.2325 19.1193 42 20.5 42H25.5C26.8807 42 28 41.2325 28 40.2857V19.7143C28 18.7675 26.8807 18 25.5 18Z" fill="#A5D8FF" stroke="#1976D2" stroke-width="1.5" stroke-linecap="round" stroke-linejoin="round"/>
<path d="M40.5 18H35.5C34.1193 18 33 18.7675 33 19.7143V40.2857C33 41.2325 34.1193 42 35.5 42H40.5C41.8807 42 43 41.2325 43 40.2857V19.7143C43 18.7675 41.8807 18 40.5 18Z" fill="#A5D8FF" stroke="#1976D2" stroke-width="1.5" stroke-linecap="round" stroke-linejoin="round"/>
<g clip-path="url(#clip1_6632_80916)">
<path d="M18.75 10.5254V10.5504" stroke="black" stroke-width="2" stroke-linecap="round" stroke-linejoin="round"/>
<path d="M10.5254 18.75V18.775" stroke="black" stroke-width="2" stroke-linecap="round" stroke-linejoin="round"/>
<path d="M7.5 30V30.025" stroke="black" stroke-width="2" stroke-linecap="round" stroke-linejoin="round"/>
<path d="M10.5254 41.25V41.275" stroke="black" stroke-width="2" stroke-linecap="round" stroke-linejoin="round"/>
<path d="M18.75 49.4746V49.4996" stroke="black" stroke-width="2" stroke-linecap="round" stroke-linejoin="round"/>
<path d="M30 52.5V52.525" stroke="black" stroke-width="2" stroke-linecap="round" stroke-linejoin="round"/>
<path d="M41.25 49.4746V49.4996" stroke="black" stroke-width="2" stroke-linecap="round" stroke-linejoin="round"/>
<path d="M49.4746 41.25V41.275" stroke="black" stroke-width="2" stroke-linecap="round" stroke-linejoin="round"/>
<path d="M52.5 30V30.025" stroke="black" stroke-width="2" stroke-linecap="round" stroke-linejoin="round"/>
<path d="M49.4746 18.75V18.775" stroke="black" stroke-width="2" stroke-linecap="round" stroke-linejoin="round"/>
<path d="M41.25 10.5254V10.5504" stroke="black" stroke-width="2" stroke-linecap="round" stroke-linejoin="round"/>
<path d="M30 7.5V7.525" stroke="black" stroke-width="2" stroke-linecap="round" stroke-linejoin="round"/>
</g>
</g>
<defs>
<clipPath id="clip0_6632_80916">
<rect width="60" height="60" fill="white"/>
</clipPath>
<clipPath id="clip1_6632_80916">
<rect width="60" height="60" fill="white"/>
</clipPath>
</defs>
</svg>
