<svg id="visual" viewBox="0 0 900 600" width="900" height="600" xmlns="http://www.w3.org/2000/svg" xmlns:xlink="http://www.w3.org/1999/xlink" version="1.1"><rect x="0" y="0" width="900" height="600" fill="#001220"></rect><path d="M0 356L25 364.8C50 373.7 100 391.3 150 385.3C200 379.3 250 349.7 300 341.7C350 333.7 400 347.3 450 340.5C500 333.7 550 306.3 600 314.5C650 322.7 700 366.3 750 383.3C800 400.3 850 390.7 875 385.8L900 381L900 601L875 601C850 601 800 601 750 601C700 601 650 601 600 601C550 601 500 601 450 601C400 601 350 601 300 601C250 601 200 601 150 601C100 601 50 601 25 601L0 601Z" fill="#228be6"></path><path d="M0 401L25 403.8C50 406.7 100 412.3 150 418.5C200 424.7 250 431.3 300 427.7C350 424 400 410 450 391.2C500 372.3 550 348.7 600 357.2C650 365.7 700 406.3 750 407.7C800 409 850 371 875 352L900 333L900 601L875 601C850 601 800 601 750 601C700 601 650 601 600 601C550 601 500 601 450 601C400 601 350 601 300 601C250 601 200 601 150 601C100 601 50 601 25 601L0 601Z" fill="#3a96ea"></path><path d="M0 444L25 446.7C50 449.3 100 454.7 150 444.7C200 434.7 250 409.3 300 398.5C350 387.7 400 391.3 450 387.5C500 383.7 550 372.3 600 377C650 381.7 700 402.3 750 411.7C800 421 850 419 875 418L900 417L900 601L875 601C850 601 800 601 750 601C700 601 650 601 600 601C550 601 500 601 450 601C400 601 350 601 300 601C250 601 200 601 150 601C100 601 50 601 25 601L0 601Z" fill="#4da1ee"></path><path d="M0 437L25 435C50 433 100 429 150 432.5C200 436 250 447 300 445C350 443 400 428 450 420.5C500 413 550 413 600 412.7C650 412.3 700 411.7 750 416.3C800 421 850 431 875 436L900 441L900 601L875 601C850 601 800 601 750 601C700 601 650 601 600 601C550 601 500 601 450 601C400 601 350 601 300 601C250 601 200 601 150 601C100 601 50 601 25 601L0 601Z" fill="#5facf1"></path><path d="M0 480L25 478C50 476 100 472 150 464.3C200 456.7 250 445.3 300 437.5C350 429.7 400 425.3 450 435.5C500 445.7 550 470.3 600 473.3C650 476.3 700 457.7 750 448C800 438.3 850 437.7 875 437.3L900 437L900 601L875 601C850 601 800 601 750 601C700 601 650 601 600 601C550 601 500 601 450 601C400 601 350 601 300 601C250 601 200 601 150 601C100 601 50 601 25 601L0 601Z" fill="#71b7f5"></path><path d="M0 520L25 518C50 516 100 512 150 504.2C200 496.3 250 484.7 300 481.5C350 478.3 400 483.7 450 492.7C500 501.7 550 514.3 600 511.8C650 509.3 700 491.7 750 486.8C800 482 850 490 875 494L900 498L900 601L875 601C850 601 800 601 750 601C700 601 650 601 600 601C550 601 500 601 450 601C400 601 350 601 300 601C250 601 200 601 150 601C100 601 50 601 25 601L0 601Z" fill="#82c2f8"></path><path d="M0 526L25 527.3C50 528.7 100 531.3 150 532.5C200 533.7 250 533.3 300 532.8C350 532.3 400 531.7 450 531.5C500 531.3 550 531.7 600 530.7C650 529.7 700 527.3 750 525.5C800 523.7 850 522.3 875 521.7L900 521L900 601L875 601C850 601 800 601 750 601C700 601 650 601 600 601C550 601 500 601 450 601C400 601 350 601 300 601C250 601 200 601 150 601C100 601 50 601 25 601L0 601Z" fill="#94cdfc"></path><path d="M0 579L25 574.7C50 570.3 100 561.7 150 560.3C200 559 250 565 300 563.8C350 562.7 400 554.3 450 556.8C500 559.3 550 572.7 600 570.7C650 568.7 700 551.3 750 546.3C800 541.3 850 548.7 875 552.3L900 556L900 601L875 601C850 601 800 601 750 601C700 601 650 601 600 601C550 601 500 601 450 601C400 601 350 601 300 601C250 601 200 601 150 601C100 601 50 601 25 601L0 601Z" fill="#a5d8ff"></path></svg>