<svg width="60" height="60" viewBox="0 0 60 60" fill="none" xmlns="http://www.w3.org/2000/svg">
<g clip-path="url(#clip0_6533_80914)">
<path d="M7.5 12.5C7.5 13.8261 8.02678 15.0979 8.96447 16.0355C9.90215 16.9732 11.1739 17.5 12.5 17.5C13.8261 17.5 15.0979 16.9732 16.0355 16.0355C16.9732 15.0979 17.5 13.8261 17.5 12.5C17.5 11.1739 16.9732 9.90215 16.0355 8.96447C15.0979 8.02678 13.8261 7.5 12.5 7.5C11.1739 7.5 9.90215 8.02678 8.96447 8.96447C8.02678 9.90215 7.5 11.1739 7.5 12.5Z" fill="#A5D8FF" stroke="#1976D2" stroke-width="2" stroke-linecap="round" stroke-linejoin="round"/>
<path d="M42.5 12.5C42.5 13.8261 43.0268 15.0979 43.9645 16.0355C44.9021 16.9732 46.1739 17.5 47.5 17.5C48.8261 17.5 50.0979 16.9732 51.0355 16.0355C51.9732 15.0979 52.5 13.8261 52.5 12.5C52.5 11.1739 51.9732 9.90215 51.0355 8.96447C50.0979 8.02678 48.8261 7.5 47.5 7.5C46.1739 7.5 44.9021 8.02678 43.9645 8.96447C43.0268 9.90215 42.5 11.1739 42.5 12.5Z" fill="#A5D8FF" stroke="#1976D2" stroke-width="2" stroke-linecap="round" stroke-linejoin="round"/>
<path d="M7.5 47.5C7.5 48.8261 8.02678 50.0979 8.96447 51.0355C9.90215 51.9732 11.1739 52.5 12.5 52.5C13.8261 52.5 15.0979 51.9732 16.0355 51.0355C16.9732 50.0979 17.5 48.8261 17.5 47.5C17.5 46.1739 16.9732 44.9021 16.0355 43.9645C15.0979 43.0268 13.8261 42.5 12.5 42.5C11.1739 42.5 9.90215 43.0268 8.96447 43.9645C8.02678 44.9021 7.5 46.1739 7.5 47.5Z" fill="#A5D8FF" stroke="#1976D2" stroke-width="2" stroke-linecap="round" stroke-linejoin="round"/>
<path d="M42.5 47.5C42.5 48.8261 43.0268 50.0979 43.9645 51.0355C44.9021 51.9732 46.1739 52.5 47.5 52.5C48.8261 52.5 50.0979 51.9732 51.0355 51.0355C51.9732 50.0979 52.5 48.8261 52.5 47.5C52.5 46.1739 51.9732 44.9021 51.0355 43.9645C50.0979 43.0268 48.8261 42.5 47.5 42.5C46.1739 42.5 44.9021 43.0268 43.9645 43.9645C43.0268 44.9021 42.5 46.1739 42.5 47.5Z" fill="#A5D8FF" stroke="#1976D2" stroke-width="2" stroke-linecap="round" stroke-linejoin="round"/>
<path d="M12.5 17.5V42.5" stroke="#1976D2" stroke-width="2" stroke-linecap="round" stroke-linejoin="round"/>
<path d="M17.5 12.5H42.5" stroke="#1976D2" stroke-width="2" stroke-linecap="round" stroke-linejoin="round"/>
<path d="M17.5 47.5H42.5" stroke="#1976D2" stroke-width="2" stroke-linecap="round" stroke-linejoin="round"/>
<path d="M47.5 17.5V42.5" stroke="#1976D2" stroke-width="2" stroke-linecap="round" stroke-linejoin="round"/>
<g clip-path="url(#clip1_6533_80914)">
<path d="M22.4141 23.6699L24.0078 28.9812M31.0166 35.9924L36.3303 37.5862" stroke="#1976D2" stroke-width="2" stroke-linecap="round" stroke-linejoin="round"/>
<path d="M29.6035 30.396L36.8023 23.1973" stroke="#1976D2" stroke-width="2" stroke-linecap="round" stroke-linejoin="round"/>
<path d="M20 21.875C20 22.1212 20.0485 22.365 20.1427 22.5925C20.237 22.82 20.3751 23.0267 20.5492 23.2008C20.7233 23.3749 20.93 23.513 21.1575 23.6073C21.385 23.7015 21.6288 23.75 21.875 23.75C22.1212 23.75 22.365 23.7015 22.5925 23.6073C22.82 23.513 23.0267 23.3749 23.2008 23.2008C23.3749 23.0267 23.513 22.82 23.6073 22.5925C23.7015 22.365 23.75 22.1212 23.75 21.875C23.75 21.6288 23.7015 21.385 23.6073 21.1575C23.513 20.93 23.3749 20.7233 23.2008 20.5492C23.0267 20.3751 22.82 20.237 22.5925 20.1427C22.365 20.0485 22.1212 20 21.875 20C21.6288 20 21.385 20.0485 21.1575 20.1427C20.93 20.237 20.7233 20.3751 20.5492 20.5492C20.3751 20.7233 20.237 20.93 20.1427 21.1575C20.0485 21.385 20 21.6288 20 21.875Z" stroke="#1976D2" stroke-width="2" stroke-linecap="round" stroke-linejoin="round"/>
<path d="M36.25 21.875C36.25 22.3723 36.4475 22.8492 36.7992 23.2008C37.1508 23.5525 37.6277 23.75 38.125 23.75C38.6223 23.75 39.0992 23.5525 39.4508 23.2008C39.8025 22.8492 40 22.3723 40 21.875C40 21.3777 39.8025 20.9008 39.4508 20.5492C39.0992 20.1975 38.6223 20 38.125 20C37.6277 20 37.1508 20.1975 36.7992 20.5492C36.4475 20.9008 36.25 21.3777 36.25 21.875Z" stroke="#1976D2" stroke-width="2" stroke-linecap="round" stroke-linejoin="round"/>
<path d="M36.25 38.125C36.25 38.6223 36.4475 39.0992 36.7992 39.4508C37.1508 39.8025 37.6277 40 38.125 40C38.6223 40 39.0992 39.8025 39.4508 39.4508C39.8025 39.0992 40 38.6223 40 38.125C40 37.6277 39.8025 37.1508 39.4508 36.7992C39.0992 36.4475 38.6223 36.25 38.125 36.25C37.6277 36.25 37.1508 36.4475 36.7992 36.7992C36.4475 37.1508 36.25 37.6277 36.25 38.125Z" stroke="#1976D2" stroke-width="2" stroke-linecap="round" stroke-linejoin="round"/>
<path d="M20 34.375C20 35.8668 20.5926 37.2976 21.6475 38.3525C22.7024 39.4074 24.1332 40 25.625 40C27.1168 40 28.5476 39.4074 29.6025 38.3525C30.6574 37.2976 31.25 35.8668 31.25 34.375C31.25 32.8832 30.6574 31.4524 29.6025 30.3975C28.5476 29.3426 27.1168 28.75 25.625 28.75C24.1332 28.75 22.7024 29.3426 21.6475 30.3975C20.5926 31.4524 20 32.8832 20 34.375Z" stroke="#1976D2" stroke-width="2" stroke-linecap="round" stroke-linejoin="round"/>
</g>
</g>
<defs>
<clipPath id="clip0_6533_80914">
<rect width="60" height="60" fill="white"/>
</clipPath>
<clipPath id="clip1_6533_80914">
<rect width="30" height="30" fill="white" transform="translate(15 15)"/>
</clipPath>
</defs>
</svg>
