<svg id="visual" viewBox="0 0 960 540" width="960" height="540" xmlns="http://www.w3.org/2000/svg" xmlns:xlink="http://www.w3.org/1999/xlink" version="1.1"><rect x="0" y="0" width="960" height="540" fill="#001220"></rect><path d="M0 232L20 236.7C40 241.3 80 250.7 120 261.5C160 272.3 200 284.7 240 282.3C280 280 320 263 360 252.7C400 242.3 440 238.7 480 247.7C520 256.7 560 278.3 600 280.3C640 282.3 680 264.7 720 256.5C760 248.3 800 249.7 840 243.2C880 236.7 920 222.3 940 215.2L960 208L960 541L940 541C920 541 880 541 840 541C800 541 760 541 720 541C680 541 640 541 600 541C560 541 520 541 480 541C440 541 400 541 360 541C320 541 280 541 240 541C200 541 160 541 120 541C80 541 40 541 20 541L0 541Z" fill="#228be6"></path><path d="M0 299L20 296.7C40 294.3 80 289.7 120 288C160 286.3 200 287.7 240 289C280 290.3 320 291.7 360 300C400 308.3 440 323.7 480 325C520 326.3 560 313.7 600 308.5C640 303.3 680 305.7 720 312.8C760 320 800 332 840 335.5C880 339 920 334 940 331.5L960 329L960 541L940 541C920 541 880 541 840 541C800 541 760 541 720 541C680 541 640 541 600 541C560 541 520 541 480 541C440 541 400 541 360 541C320 541 280 541 240 541C200 541 160 541 120 541C80 541 40 541 20 541L0 541Z" fill="#429bec"></path><path d="M0 347L20 351C40 355 80 363 120 367C160 371 200 371 240 369.5C280 368 320 365 360 359.7C400 354.3 440 346.7 480 343C520 339.3 560 339.7 600 345.2C640 350.7 680 361.3 720 357.2C760 353 800 334 840 330.8C880 327.7 920 340.3 940 346.7L960 353L960 541L940 541C920 541 880 541 840 541C800 541 760 541 720 541C680 541 640 541 600 541C560 541 520 541 480 541C440 541 400 541 360 541C320 541 280 541 240 541C200 541 160 541 120 541C80 541 40 541 20 541L0 541Z" fill="#5caaf1"></path><path d="M0 418L20 417.3C40 416.7 80 415.3 120 416C160 416.7 200 419.3 240 411.5C280 403.7 320 385.3 360 377.2C400 369 440 371 480 379.3C520 387.7 560 402.3 600 402C640 401.7 680 386.3 720 382.3C760 378.3 800 385.7 840 392.2C880 398.7 920 404.3 940 407.2L960 410L960 541L940 541C920 541 880 541 840 541C800 541 760 541 720 541C680 541 640 541 600 541C560 541 520 541 480 541C440 541 400 541 360 541C320 541 280 541 240 541C200 541 160 541 120 541C80 541 40 541 20 541L0 541Z" fill="#74baf5"></path><path d="M0 436L20 441.7C40 447.3 80 458.7 120 455.7C160 452.7 200 435.3 240 432.8C280 430.3 320 442.7 360 444.2C400 445.7 440 436.3 480 436.8C520 437.3 560 447.7 600 447.2C640 446.7 680 435.3 720 431.8C760 428.3 800 432.7 840 437.7C880 442.7 920 448.3 940 451.2L960 454L960 541L940 541C920 541 880 541 840 541C800 541 760 541 720 541C680 541 640 541 600 541C560 541 520 541 480 541C440 541 400 541 360 541C320 541 280 541 240 541C200 541 160 541 120 541C80 541 40 541 20 541L0 541Z" fill="#8dc9fa"></path><path d="M0 468L20 466.7C40 465.3 80 462.7 120 464C160 465.3 200 470.7 240 471.5C280 472.3 320 468.7 360 474C400 479.3 440 493.7 480 497.5C520 501.3 560 494.7 600 487.3C640 480 680 472 720 474.5C760 477 800 490 840 494C880 498 920 493 940 490.5L960 488L960 541L940 541C920 541 880 541 840 541C800 541 760 541 720 541C680 541 640 541 600 541C560 541 520 541 480 541C440 541 400 541 360 541C320 541 280 541 240 541C200 541 160 541 120 541C80 541 40 541 20 541L0 541Z" fill="#a5d8ff"></path></svg>