<svg width="33" height="33" viewBox="0 0 33 33" fill="none" xmlns="http://www.w3.org/2000/svg">
<g clip-path="url(#clip0_6914_81114)">
<rect y="3" width="30" height="30" rx="10" fill="#1976D2"/>
<path d="M7.41406 11.6699L9.00781 16.9812M16.0166 23.9924L21.3303 25.5862" stroke="white" stroke-width="2" stroke-linecap="round" stroke-linejoin="round"/>
<path d="M14.6035 18.396L21.8023 11.1973" stroke="white" stroke-width="2" stroke-linecap="round" stroke-linejoin="round"/>
<path d="M5 9.875C5 10.1212 5.0485 10.365 5.14273 10.5925C5.23695 10.82 5.37506 11.0267 5.54917 11.2008C5.72328 11.3749 5.92998 11.513 6.15747 11.6073C6.38495 11.7015 6.62877 11.75 6.875 11.75C7.12123 11.75 7.36505 11.7015 7.59253 11.6073C7.82002 11.513 8.02672 11.3749 8.20083 11.2008C8.37494 11.0267 8.51305 10.82 8.60727 10.5925C8.7015 10.365 8.75 10.1212 8.75 9.875C8.75 9.62877 8.7015 9.38495 8.60727 9.15747C8.51305 8.92998 8.37494 8.72328 8.20083 8.54917C8.02672 8.37506 7.82002 8.23695 7.59253 8.14273C7.36505 8.0485 7.12123 8 6.875 8C6.62877 8 6.38495 8.0485 6.15747 8.14273C5.92998 8.23695 5.72328 8.37506 5.54917 8.54917C5.37506 8.72328 5.23695 8.92998 5.14273 9.15747C5.0485 9.38495 5 9.62877 5 9.875Z" stroke="white" stroke-width="2" stroke-linecap="round" stroke-linejoin="round"/>
<path d="M21.25 9.875C21.25 10.3723 21.4475 10.8492 21.7992 11.2008C22.1508 11.5525 22.6277 11.75 23.125 11.75C23.6223 11.75 24.0992 11.5525 24.4508 11.2008C24.8025 10.8492 25 10.3723 25 9.875C25 9.37772 24.8025 8.90081 24.4508 8.54917C24.0992 8.19754 23.6223 8 23.125 8C22.6277 8 22.1508 8.19754 21.7992 8.54917C21.4475 8.90081 21.25 9.37772 21.25 9.875Z" stroke="white" stroke-width="2" stroke-linecap="round" stroke-linejoin="round"/>
<path d="M21.25 26.125C21.25 26.6223 21.4475 27.0992 21.7992 27.4508C22.1508 27.8025 22.6277 28 23.125 28C23.6223 28 24.0992 27.8025 24.4508 27.4508C24.8025 27.0992 25 26.6223 25 26.125C25 25.6277 24.8025 25.1508 24.4508 24.7992C24.0992 24.4475 23.6223 24.25 23.125 24.25C22.6277 24.25 22.1508 24.4475 21.7992 24.7992C21.4475 25.1508 21.25 25.6277 21.25 26.125Z" stroke="white" stroke-width="2" stroke-linecap="round" stroke-linejoin="round"/>
<path d="M5 22.375C5 23.8668 5.59263 25.2976 6.64752 26.3525C7.70242 27.4074 9.13316 28 10.625 28C12.1168 28 13.5476 27.4074 14.6025 26.3525C15.6574 25.2976 16.25 23.8668 16.25 22.375C16.25 20.8832 15.6574 19.4524 14.6025 18.3975C13.5476 17.3426 12.1168 16.75 10.625 16.75C9.13316 16.75 7.70242 17.3426 6.64752 18.3975C5.59263 19.4524 5 20.8832 5 22.375Z" stroke="white" stroke-width="2" stroke-linecap="round" stroke-linejoin="round"/>
</g>
<circle cx="25.5" cy="7.5" r="7" fill="#FF0000" stroke="white"/>
<defs>
<clipPath id="clip0_6914_81114">
<rect y="3" width="30" height="30" rx="10" fill="white"/>
</clipPath>
</defs>
</svg>
